<?xml version="1.0" encoding="utf-8" standalone="no"?>
<!DOCTYPE svg PUBLIC "-//W3C//DTD SVG 1.1//EN"
  "http://www.w3.org/Graphics/SVG/1.1/DTD/svg11.dtd">
<!-- Created with matplotlib (https://matplotlib.org/) -->
<svg height="582.48pt" version="1.1" viewBox="0 0 1103.76 582.48" width="1103.76pt" xmlns="http://www.w3.org/2000/svg" xmlns:xlink="http://www.w3.org/1999/xlink">
 <defs>
  <style type="text/css">
*{stroke-linecap:butt;stroke-linejoin:round;}
  </style>
 </defs>
 <g id="figure_1">
  <g id="patch_1">
   <path d="M 0 582.48 
L 1103.76 582.48 
L 1103.76 0 
L 0 0 
z
" style="fill:#ffffff;"/>
  </g>
  <g id="axes_1">
   <g id="patch_2">
    <path d="M 134.1375 229.621167 
L 533.362274 229.621167 
L 533.362274 45.304 
L 134.1375 45.304 
z
" style="fill:#ffffff;"/>
   </g>
   <g id="matplotlib.axis_1">
    <g id="xtick_1">
     <g id="line2d_1">
      <defs>
       <path d="M 0 0 
L 0 3.5 
" id="mc9df47fa15" style="stroke:#000000;stroke-width:0.8;"/>
      </defs>
      <g>
       <use style="stroke:#000000;stroke-width:0.8;" x="152.284081" xlink:href="#mc9df47fa15" y="229.621167"/>
      </g>
     </g>
     <g id="text_1">
      <!-- −2.0 -->
      <defs>
       <path d="M 10.59375 35.5 
L 73.1875 35.5 
L 73.1875 27.203125 
L 10.59375 27.203125 
z
" id="DejaVuSans-8722"/>
       <path d="M 19.1875 8.296875 
L 53.609375 8.296875 
L 53.609375 0 
L 7.328125 0 
L 7.328125 8.296875 
Q 12.9375 14.109375 22.625 23.890625 
Q 32.328125 33.6875 34.8125 36.53125 
Q 39.546875 41.84375 41.421875 45.53125 
Q 43.3125 49.21875 43.3125 52.78125 
Q 43.3125 58.59375 39.234375 62.25 
Q 35.15625 65.921875 28.609375 65.921875 
Q 23.96875 65.921875 18.8125 64.3125 
Q 13.671875 62.703125 7.8125 59.421875 
L 7.8125 69.390625 
Q 13.765625 71.78125 18.9375 73 
Q 24.125 74.21875 28.421875 74.21875 
Q 39.75 74.21875 46.484375 68.546875 
Q 53.21875 62.890625 53.21875 53.421875 
Q 53.21875 48.921875 51.53125 44.890625 
Q 49.859375 40.875 45.40625 35.40625 
Q 44.1875 33.984375 37.640625 27.21875 
Q 31.109375 20.453125 19.1875 8.296875 
z
" id="DejaVuSans-50"/>
       <path d="M 10.6875 12.40625 
L 21 12.40625 
L 21 0 
L 10.6875 0 
z
" id="DejaVuSans-46"/>
       <path d="M 31.78125 66.40625 
Q 24.171875 66.40625 20.328125 58.90625 
Q 16.5 51.421875 16.5 36.375 
Q 16.5 21.390625 20.328125 13.890625 
Q 24.171875 6.390625 31.78125 6.390625 
Q 39.453125 6.390625 43.28125 13.890625 
Q 47.125 21.390625 47.125 36.375 
Q 47.125 51.421875 43.28125 58.90625 
Q 39.453125 66.40625 31.78125 66.40625 
z
M 31.78125 74.21875 
Q 44.046875 74.21875 50.515625 64.515625 
Q 56.984375 54.828125 56.984375 36.375 
Q 56.984375 17.96875 50.515625 8.265625 
Q 44.046875 -1.421875 31.78125 -1.421875 
Q 19.53125 -1.421875 13.0625 8.265625 
Q 6.59375 17.96875 6.59375 36.375 
Q 6.59375 54.828125 13.0625 64.515625 
Q 19.53125 74.21875 31.78125 74.21875 
z
" id="DejaVuSans-48"/>
      </defs>
      <g transform="translate(140.142674 244.219604)scale(0.1 -0.1)">
       <use xlink:href="#DejaVuSans-8722"/>
       <use x="83.789062" xlink:href="#DejaVuSans-50"/>
       <use x="147.412109" xlink:href="#DejaVuSans-46"/>
       <use x="179.199219" xlink:href="#DejaVuSans-48"/>
      </g>
     </g>
    </g>
    <g id="xtick_2">
     <g id="line2d_2">
      <g>
       <use style="stroke:#000000;stroke-width:0.8;" x="197.650532" xlink:href="#mc9df47fa15" y="229.621167"/>
      </g>
     </g>
     <g id="text_2">
      <!-- −1.5 -->
      <defs>
       <path d="M 12.40625 8.296875 
L 28.515625 8.296875 
L 28.515625 63.921875 
L 10.984375 60.40625 
L 10.984375 69.390625 
L 28.421875 72.90625 
L 38.28125 72.90625 
L 38.28125 8.296875 
L 54.390625 8.296875 
L 54.390625 0 
L 12.40625 0 
z
" id="DejaVuSans-49"/>
       <path d="M 10.796875 72.90625 
L 49.515625 72.90625 
L 49.515625 64.59375 
L 19.828125 64.59375 
L 19.828125 46.734375 
Q 21.96875 47.46875 24.109375 47.828125 
Q 26.265625 48.1875 28.421875 48.1875 
Q 40.625 48.1875 47.75 41.5 
Q 54.890625 34.8125 54.890625 23.390625 
Q 54.890625 11.625 47.5625 5.09375 
Q 40.234375 -1.421875 26.90625 -1.421875 
Q 22.3125 -1.421875 17.546875 -0.640625 
Q 12.796875 0.140625 7.71875 1.703125 
L 7.71875 11.625 
Q 12.109375 9.234375 16.796875 8.0625 
Q 21.484375 6.890625 26.703125 6.890625 
Q 35.15625 6.890625 40.078125 11.328125 
Q 45.015625 15.765625 45.015625 23.390625 
Q 45.015625 31 40.078125 35.4375 
Q 35.15625 39.890625 26.703125 39.890625 
Q 22.75 39.890625 18.8125 39.015625 
Q 14.890625 38.140625 10.796875 36.28125 
z
" id="DejaVuSans-53"/>
      </defs>
      <g transform="translate(185.509126 244.219604)scale(0.1 -0.1)">
       <use xlink:href="#DejaVuSans-8722"/>
       <use x="83.789062" xlink:href="#DejaVuSans-49"/>
       <use x="147.412109" xlink:href="#DejaVuSans-46"/>
       <use x="179.199219" xlink:href="#DejaVuSans-53"/>
      </g>
     </g>
    </g>
    <g id="xtick_3">
     <g id="line2d_3">
      <g>
       <use style="stroke:#000000;stroke-width:0.8;" x="243.016984" xlink:href="#mc9df47fa15" y="229.621167"/>
      </g>
     </g>
     <g id="text_3">
      <!-- −1.0 -->
      <g transform="translate(230.875578 244.219604)scale(0.1 -0.1)">
       <use xlink:href="#DejaVuSans-8722"/>
       <use x="83.789062" xlink:href="#DejaVuSans-49"/>
       <use x="147.412109" xlink:href="#DejaVuSans-46"/>
       <use x="179.199219" xlink:href="#DejaVuSans-48"/>
      </g>
     </g>
    </g>
    <g id="xtick_4">
     <g id="line2d_4">
      <g>
       <use style="stroke:#000000;stroke-width:0.8;" x="288.383436" xlink:href="#mc9df47fa15" y="229.621167"/>
      </g>
     </g>
     <g id="text_4">
      <!-- −0.5 -->
      <g transform="translate(276.242029 244.219604)scale(0.1 -0.1)">
       <use xlink:href="#DejaVuSans-8722"/>
       <use x="83.789062" xlink:href="#DejaVuSans-48"/>
       <use x="147.412109" xlink:href="#DejaVuSans-46"/>
       <use x="179.199219" xlink:href="#DejaVuSans-53"/>
      </g>
     </g>
    </g>
    <g id="xtick_5">
     <g id="line2d_5">
      <g>
       <use style="stroke:#000000;stroke-width:0.8;" x="333.749887" xlink:href="#mc9df47fa15" y="229.621167"/>
      </g>
     </g>
     <g id="text_5">
      <!-- 0.0 -->
      <g transform="translate(325.798325 244.219604)scale(0.1 -0.1)">
       <use xlink:href="#DejaVuSans-48"/>
       <use x="63.623047" xlink:href="#DejaVuSans-46"/>
       <use x="95.410156" xlink:href="#DejaVuSans-48"/>
      </g>
     </g>
    </g>
    <g id="xtick_6">
     <g id="line2d_6">
      <g>
       <use style="stroke:#000000;stroke-width:0.8;" x="379.116339" xlink:href="#mc9df47fa15" y="229.621167"/>
      </g>
     </g>
     <g id="text_6">
      <!-- 0.5 -->
      <g transform="translate(371.164776 244.219604)scale(0.1 -0.1)">
       <use xlink:href="#DejaVuSans-48"/>
       <use x="63.623047" xlink:href="#DejaVuSans-46"/>
       <use x="95.410156" xlink:href="#DejaVuSans-53"/>
      </g>
     </g>
    </g>
    <g id="xtick_7">
     <g id="line2d_7">
      <g>
       <use style="stroke:#000000;stroke-width:0.8;" x="424.482791" xlink:href="#mc9df47fa15" y="229.621167"/>
      </g>
     </g>
     <g id="text_7">
      <!-- 1.0 -->
      <g transform="translate(416.531228 244.219604)scale(0.1 -0.1)">
       <use xlink:href="#DejaVuSans-49"/>
       <use x="63.623047" xlink:href="#DejaVuSans-46"/>
       <use x="95.410156" xlink:href="#DejaVuSans-48"/>
      </g>
     </g>
    </g>
    <g id="xtick_8">
     <g id="line2d_8">
      <g>
       <use style="stroke:#000000;stroke-width:0.8;" x="469.849242" xlink:href="#mc9df47fa15" y="229.621167"/>
      </g>
     </g>
     <g id="text_8">
      <!-- 1.5 -->
      <g transform="translate(461.89768 244.219604)scale(0.1 -0.1)">
       <use xlink:href="#DejaVuSans-49"/>
       <use x="63.623047" xlink:href="#DejaVuSans-46"/>
       <use x="95.410156" xlink:href="#DejaVuSans-53"/>
      </g>
     </g>
    </g>
    <g id="xtick_9">
     <g id="line2d_9">
      <g>
       <use style="stroke:#000000;stroke-width:0.8;" x="515.215694" xlink:href="#mc9df47fa15" y="229.621167"/>
      </g>
     </g>
     <g id="text_9">
      <!-- 2.0 -->
      <g transform="translate(507.264131 244.219604)scale(0.1 -0.1)">
       <use xlink:href="#DejaVuSans-50"/>
       <use x="63.623047" xlink:href="#DejaVuSans-46"/>
       <use x="95.410156" xlink:href="#DejaVuSans-48"/>
      </g>
     </g>
    </g>
    <g id="text_10">
     <!-- x -->
     <defs>
      <path d="M 54.890625 54.6875 
L 35.109375 28.078125 
L 55.90625 0 
L 45.3125 0 
L 29.390625 21.484375 
L 13.484375 0 
L 2.875 0 
L 24.125 28.609375 
L 4.6875 54.6875 
L 15.28125 54.6875 
L 29.78125 35.203125 
L 44.28125 54.6875 
z
" id="DejaVuSans-120"/>
     </defs>
     <g transform="translate(330.790512 257.897729)scale(0.1 -0.1)">
      <use xlink:href="#DejaVuSans-120"/>
     </g>
    </g>
   </g>
   <g id="matplotlib.axis_2">
    <g id="ytick_1">
     <g id="line2d_10">
      <defs>
       <path d="M 0 0 
L -3.5 0 
" id="mfebcbb426c" style="stroke:#000000;stroke-width:0.8;"/>
      </defs>
      <g>
       <use style="stroke:#000000;stroke-width:0.8;" x="134.1375" xlink:href="#mfebcbb426c" y="221.243114"/>
      </g>
     </g>
     <g id="text_11">
      <!-- 0.0 -->
      <g transform="translate(111.234375 225.042332)scale(0.1 -0.1)">
       <use xlink:href="#DejaVuSans-48"/>
       <use x="63.623047" xlink:href="#DejaVuSans-46"/>
       <use x="95.410156" xlink:href="#DejaVuSans-48"/>
      </g>
     </g>
    </g>
    <g id="ytick_2">
     <g id="line2d_11">
      <g>
       <use style="stroke:#000000;stroke-width:0.8;" x="134.1375" xlink:href="#mfebcbb426c" y="187.730902"/>
      </g>
     </g>
     <g id="text_12">
      <!-- 0.2 -->
      <g transform="translate(111.234375 191.53012)scale(0.1 -0.1)">
       <use xlink:href="#DejaVuSans-48"/>
       <use x="63.623047" xlink:href="#DejaVuSans-46"/>
       <use x="95.410156" xlink:href="#DejaVuSans-50"/>
      </g>
     </g>
    </g>
    <g id="ytick_3">
     <g id="line2d_12">
      <g>
       <use style="stroke:#000000;stroke-width:0.8;" x="134.1375" xlink:href="#mfebcbb426c" y="154.218689"/>
      </g>
     </g>
     <g id="text_13">
      <!-- 0.4 -->
      <defs>
       <path d="M 37.796875 64.3125 
L 12.890625 25.390625 
L 37.796875 25.390625 
z
M 35.203125 72.90625 
L 47.609375 72.90625 
L 47.609375 25.390625 
L 58.015625 25.390625 
L 58.015625 17.1875 
L 47.609375 17.1875 
L 47.609375 0 
L 37.796875 0 
L 37.796875 17.1875 
L 4.890625 17.1875 
L 4.890625 26.703125 
z
" id="DejaVuSans-52"/>
      </defs>
      <g transform="translate(111.234375 158.017908)scale(0.1 -0.1)">
       <use xlink:href="#DejaVuSans-48"/>
       <use x="63.623047" xlink:href="#DejaVuSans-46"/>
       <use x="95.410156" xlink:href="#DejaVuSans-52"/>
      </g>
     </g>
    </g>
    <g id="ytick_4">
     <g id="line2d_13">
      <g>
       <use style="stroke:#000000;stroke-width:0.8;" x="134.1375" xlink:href="#mfebcbb426c" y="120.706477"/>
      </g>
     </g>
     <g id="text_14">
      <!-- 0.6 -->
      <defs>
       <path d="M 33.015625 40.375 
Q 26.375 40.375 22.484375 35.828125 
Q 18.609375 31.296875 18.609375 23.390625 
Q 18.609375 15.53125 22.484375 10.953125 
Q 26.375 6.390625 33.015625 6.390625 
Q 39.65625 6.390625 43.53125 10.953125 
Q 47.40625 15.53125 47.40625 23.390625 
Q 47.40625 31.296875 43.53125 35.828125 
Q 39.65625 40.375 33.015625 40.375 
z
M 52.59375 71.296875 
L 52.59375 62.3125 
Q 48.875 64.0625 45.09375 64.984375 
Q 41.3125 65.921875 37.59375 65.921875 
Q 27.828125 65.921875 22.671875 59.328125 
Q 17.53125 52.734375 16.796875 39.40625 
Q 19.671875 43.65625 24.015625 45.921875 
Q 28.375 48.1875 33.59375 48.1875 
Q 44.578125 48.1875 50.953125 41.515625 
Q 57.328125 34.859375 57.328125 23.390625 
Q 57.328125 12.15625 50.6875 5.359375 
Q 44.046875 -1.421875 33.015625 -1.421875 
Q 20.359375 -1.421875 13.671875 8.265625 
Q 6.984375 17.96875 6.984375 36.375 
Q 6.984375 53.65625 15.1875 63.9375 
Q 23.390625 74.21875 37.203125 74.21875 
Q 40.921875 74.21875 44.703125 73.484375 
Q 48.484375 72.75 52.59375 71.296875 
z
" id="DejaVuSans-54"/>
      </defs>
      <g transform="translate(111.234375 124.505696)scale(0.1 -0.1)">
       <use xlink:href="#DejaVuSans-48"/>
       <use x="63.623047" xlink:href="#DejaVuSans-46"/>
       <use x="95.410156" xlink:href="#DejaVuSans-54"/>
      </g>
     </g>
    </g>
    <g id="ytick_5">
     <g id="line2d_14">
      <g>
       <use style="stroke:#000000;stroke-width:0.8;" x="134.1375" xlink:href="#mfebcbb426c" y="87.194265"/>
      </g>
     </g>
     <g id="text_15">
      <!-- 0.8 -->
      <defs>
       <path d="M 31.78125 34.625 
Q 24.75 34.625 20.71875 30.859375 
Q 16.703125 27.09375 16.703125 20.515625 
Q 16.703125 13.921875 20.71875 10.15625 
Q 24.75 6.390625 31.78125 6.390625 
Q 38.8125 6.390625 42.859375 10.171875 
Q 46.921875 13.96875 46.921875 20.515625 
Q 46.921875 27.09375 42.890625 30.859375 
Q 38.875 34.625 31.78125 34.625 
z
M 21.921875 38.8125 
Q 15.578125 40.375 12.03125 44.71875 
Q 8.5 49.078125 8.5 55.328125 
Q 8.5 64.0625 14.71875 69.140625 
Q 20.953125 74.21875 31.78125 74.21875 
Q 42.671875 74.21875 48.875 69.140625 
Q 55.078125 64.0625 55.078125 55.328125 
Q 55.078125 49.078125 51.53125 44.71875 
Q 48 40.375 41.703125 38.8125 
Q 48.828125 37.15625 52.796875 32.3125 
Q 56.78125 27.484375 56.78125 20.515625 
Q 56.78125 9.90625 50.3125 4.234375 
Q 43.84375 -1.421875 31.78125 -1.421875 
Q 19.734375 -1.421875 13.25 4.234375 
Q 6.78125 9.90625 6.78125 20.515625 
Q 6.78125 27.484375 10.78125 32.3125 
Q 14.796875 37.15625 21.921875 38.8125 
z
M 18.3125 54.390625 
Q 18.3125 48.734375 21.84375 45.5625 
Q 25.390625 42.390625 31.78125 42.390625 
Q 38.140625 42.390625 41.71875 45.5625 
Q 45.3125 48.734375 45.3125 54.390625 
Q 45.3125 60.0625 41.71875 63.234375 
Q 38.140625 66.40625 31.78125 66.40625 
Q 25.390625 66.40625 21.84375 63.234375 
Q 18.3125 60.0625 18.3125 54.390625 
z
" id="DejaVuSans-56"/>
      </defs>
      <g transform="translate(111.234375 90.993484)scale(0.1 -0.1)">
       <use xlink:href="#DejaVuSans-48"/>
       <use x="63.623047" xlink:href="#DejaVuSans-46"/>
       <use x="95.410156" xlink:href="#DejaVuSans-56"/>
      </g>
     </g>
    </g>
    <g id="ytick_6">
     <g id="line2d_15">
      <g>
       <use style="stroke:#000000;stroke-width:0.8;" x="134.1375" xlink:href="#mfebcbb426c" y="53.682053"/>
      </g>
     </g>
     <g id="text_16">
      <!-- 1.0 -->
      <g transform="translate(111.234375 57.481272)scale(0.1 -0.1)">
       <use xlink:href="#DejaVuSans-49"/>
       <use x="63.623047" xlink:href="#DejaVuSans-46"/>
       <use x="95.410156" xlink:href="#DejaVuSans-48"/>
      </g>
     </g>
    </g>
    <g id="text_17">
     <!-- f(x) -->
     <defs>
      <path d="M 37.109375 75.984375 
L 37.109375 68.5 
L 28.515625 68.5 
Q 23.6875 68.5 21.796875 66.546875 
Q 19.921875 64.59375 19.921875 59.515625 
L 19.921875 54.6875 
L 34.71875 54.6875 
L 34.71875 47.703125 
L 19.921875 47.703125 
L 19.921875 0 
L 10.890625 0 
L 10.890625 47.703125 
L 2.296875 47.703125 
L 2.296875 54.6875 
L 10.890625 54.6875 
L 10.890625 58.5 
Q 10.890625 67.625 15.140625 71.796875 
Q 19.390625 75.984375 28.609375 75.984375 
z
" id="DejaVuSans-102"/>
      <path d="M 31 75.875 
Q 24.46875 64.65625 21.28125 53.65625 
Q 18.109375 42.671875 18.109375 31.390625 
Q 18.109375 20.125 21.3125 9.0625 
Q 24.515625 -2 31 -13.1875 
L 23.1875 -13.1875 
Q 15.875 -1.703125 12.234375 9.375 
Q 8.59375 20.453125 8.59375 31.390625 
Q 8.59375 42.28125 12.203125 53.3125 
Q 15.828125 64.359375 23.1875 75.875 
z
" id="DejaVuSans-40"/>
      <path d="M 8.015625 75.875 
L 15.828125 75.875 
Q 23.140625 64.359375 26.78125 53.3125 
Q 30.421875 42.28125 30.421875 31.390625 
Q 30.421875 20.453125 26.78125 9.375 
Q 23.140625 -1.703125 15.828125 -13.1875 
L 8.015625 -13.1875 
Q 14.5 -2 17.703125 9.0625 
Q 20.90625 20.125 20.90625 31.390625 
Q 20.90625 42.671875 17.703125 53.65625 
Q 14.5 64.65625 8.015625 75.875 
z
" id="DejaVuSans-41"/>
     </defs>
     <g transform="translate(105.154688 146.083677)rotate(-90)scale(0.1 -0.1)">
      <use xlink:href="#DejaVuSans-102"/>
      <use x="35.205078" xlink:href="#DejaVuSans-40"/>
      <use x="74.21875" xlink:href="#DejaVuSans-120"/>
      <use x="133.398438" xlink:href="#DejaVuSans-41"/>
     </g>
    </g>
   </g>
   <g id="line2d_16">
    <path clip-path="url(#p31a6ea2354)" d="M 152.284081 221.243114 
L 243.016984 221.243114 
L 243.016984 53.682053 
L 424.482791 53.682053 
L 424.482791 221.243114 
L 515.215694 221.243114 
" style="fill:none;stroke:#008000;stroke-linecap:square;stroke-width:1.5;"/>
   </g>
   <g id="patch_3">
    <path d="M 134.1375 229.621167 
L 134.1375 45.304 
" style="fill:none;stroke:#000000;stroke-linecap:square;stroke-linejoin:miter;stroke-width:0.8;"/>
   </g>
   <g id="patch_4">
    <path d="M 533.362274 229.621167 
L 533.362274 45.304 
" style="fill:none;stroke:#000000;stroke-linecap:square;stroke-linejoin:miter;stroke-width:0.8;"/>
   </g>
   <g id="patch_5">
    <path d="M 134.1375 229.621167 
L 533.362274 229.621167 
" style="fill:none;stroke:#000000;stroke-linecap:square;stroke-linejoin:miter;stroke-width:0.8;"/>
   </g>
   <g id="patch_6">
    <path d="M 134.1375 45.304 
L 533.362274 45.304 
" style="fill:none;stroke:#000000;stroke-linecap:square;stroke-linejoin:miter;stroke-width:0.8;"/>
   </g>
   <g id="text_18">
    <!-- Function -->
    <defs>
     <path d="M 9.8125 72.90625 
L 51.703125 72.90625 
L 51.703125 64.59375 
L 19.671875 64.59375 
L 19.671875 43.109375 
L 48.578125 43.109375 
L 48.578125 34.8125 
L 19.671875 34.8125 
L 19.671875 0 
L 9.8125 0 
z
" id="DejaVuSans-70"/>
     <path d="M 8.5 21.578125 
L 8.5 54.6875 
L 17.484375 54.6875 
L 17.484375 21.921875 
Q 17.484375 14.15625 20.5 10.265625 
Q 23.53125 6.390625 29.59375 6.390625 
Q 36.859375 6.390625 41.078125 11.03125 
Q 45.3125 15.671875 45.3125 23.6875 
L 45.3125 54.6875 
L 54.296875 54.6875 
L 54.296875 0 
L 45.3125 0 
L 45.3125 8.40625 
Q 42.046875 3.421875 37.71875 1 
Q 33.40625 -1.421875 27.6875 -1.421875 
Q 18.265625 -1.421875 13.375 4.4375 
Q 8.5 10.296875 8.5 21.578125 
z
M 31.109375 56 
z
" id="DejaVuSans-117"/>
     <path d="M 54.890625 33.015625 
L 54.890625 0 
L 45.90625 0 
L 45.90625 32.71875 
Q 45.90625 40.484375 42.875 44.328125 
Q 39.84375 48.1875 33.796875 48.1875 
Q 26.515625 48.1875 22.3125 43.546875 
Q 18.109375 38.921875 18.109375 30.90625 
L 18.109375 0 
L 9.078125 0 
L 9.078125 54.6875 
L 18.109375 54.6875 
L 18.109375 46.1875 
Q 21.34375 51.125 25.703125 53.5625 
Q 30.078125 56 35.796875 56 
Q 45.21875 56 50.046875 50.171875 
Q 54.890625 44.34375 54.890625 33.015625 
z
" id="DejaVuSans-110"/>
     <path d="M 48.78125 52.59375 
L 48.78125 44.1875 
Q 44.96875 46.296875 41.140625 47.34375 
Q 37.3125 48.390625 33.40625 48.390625 
Q 24.65625 48.390625 19.8125 42.84375 
Q 14.984375 37.3125 14.984375 27.296875 
Q 14.984375 17.28125 19.8125 11.734375 
Q 24.65625 6.203125 33.40625 6.203125 
Q 37.3125 6.203125 41.140625 7.25 
Q 44.96875 8.296875 48.78125 10.40625 
L 48.78125 2.09375 
Q 45.015625 0.34375 40.984375 -0.53125 
Q 36.96875 -1.421875 32.421875 -1.421875 
Q 20.0625 -1.421875 12.78125 6.34375 
Q 5.515625 14.109375 5.515625 27.296875 
Q 5.515625 40.671875 12.859375 48.328125 
Q 20.21875 56 33.015625 56 
Q 37.15625 56 41.109375 55.140625 
Q 45.0625 54.296875 48.78125 52.59375 
z
" id="DejaVuSans-99"/>
     <path d="M 18.3125 70.21875 
L 18.3125 54.6875 
L 36.8125 54.6875 
L 36.8125 47.703125 
L 18.3125 47.703125 
L 18.3125 18.015625 
Q 18.3125 11.328125 20.140625 9.421875 
Q 21.96875 7.515625 27.59375 7.515625 
L 36.8125 7.515625 
L 36.8125 0 
L 27.59375 0 
Q 17.1875 0 13.234375 3.875 
Q 9.28125 7.765625 9.28125 18.015625 
L 9.28125 47.703125 
L 2.6875 47.703125 
L 2.6875 54.6875 
L 9.28125 54.6875 
L 9.28125 70.21875 
z
" id="DejaVuSans-116"/>
     <path d="M 9.421875 54.6875 
L 18.40625 54.6875 
L 18.40625 0 
L 9.421875 0 
z
M 9.421875 75.984375 
L 18.40625 75.984375 
L 18.40625 64.59375 
L 9.421875 64.59375 
z
" id="DejaVuSans-105"/>
     <path d="M 30.609375 48.390625 
Q 23.390625 48.390625 19.1875 42.75 
Q 14.984375 37.109375 14.984375 27.296875 
Q 14.984375 17.484375 19.15625 11.84375 
Q 23.34375 6.203125 30.609375 6.203125 
Q 37.796875 6.203125 41.984375 11.859375 
Q 46.1875 17.53125 46.1875 27.296875 
Q 46.1875 37.015625 41.984375 42.703125 
Q 37.796875 48.390625 30.609375 48.390625 
z
M 30.609375 56 
Q 42.328125 56 49.015625 48.375 
Q 55.71875 40.765625 55.71875 27.296875 
Q 55.71875 13.875 49.015625 6.21875 
Q 42.328125 -1.421875 30.609375 -1.421875 
Q 18.84375 -1.421875 12.171875 6.21875 
Q 5.515625 13.875 5.515625 27.296875 
Q 5.515625 40.765625 12.171875 48.375 
Q 18.84375 56 30.609375 56 
z
" id="DejaVuSans-111"/>
    </defs>
    <g transform="translate(308.232075 39.304)scale(0.12 -0.12)">
     <use xlink:href="#DejaVuSans-70"/>
     <use x="52.019531" xlink:href="#DejaVuSans-117"/>
     <use x="115.398438" xlink:href="#DejaVuSans-110"/>
     <use x="178.777344" xlink:href="#DejaVuSans-99"/>
     <use x="233.757812" xlink:href="#DejaVuSans-116"/>
     <use x="272.966797" xlink:href="#DejaVuSans-105"/>
     <use x="300.75" xlink:href="#DejaVuSans-111"/>
     <use x="361.931641" xlink:href="#DejaVuSans-110"/>
    </g>
   </g>
  </g>
  <g id="axes_2">
   <g id="patch_7">
    <path d="M 672.562795 229.621167 
L 1071.78757 229.621167 
L 1071.78757 45.304 
L 672.562795 45.304 
z
" style="fill:#ffffff;"/>
   </g>
   <g id="matplotlib.axis_3">
    <g id="xtick_10">
     <g id="line2d_17">
      <g>
       <use style="stroke:#000000;stroke-width:0.8;" x="691.492122" xlink:href="#mc9df47fa15" y="229.621167"/>
      </g>
     </g>
     <g id="text_19">
      <!-- −800 -->
      <g transform="translate(677.758528 244.219604)scale(0.1 -0.1)">
       <use xlink:href="#DejaVuSans-8722"/>
       <use x="83.789062" xlink:href="#DejaVuSans-56"/>
       <use x="147.412109" xlink:href="#DejaVuSans-48"/>
       <use x="211.035156" xlink:href="#DejaVuSans-48"/>
      </g>
     </g>
    </g>
    <g id="xtick_11">
     <g id="line2d_18">
      <g>
       <use style="stroke:#000000;stroke-width:0.8;" x="736.707233" xlink:href="#mc9df47fa15" y="229.621167"/>
      </g>
     </g>
     <g id="text_20">
      <!-- −600 -->
      <g transform="translate(722.97364 244.219604)scale(0.1 -0.1)">
       <use xlink:href="#DejaVuSans-8722"/>
       <use x="83.789062" xlink:href="#DejaVuSans-54"/>
       <use x="147.412109" xlink:href="#DejaVuSans-48"/>
       <use x="211.035156" xlink:href="#DejaVuSans-48"/>
      </g>
     </g>
    </g>
    <g id="xtick_12">
     <g id="line2d_19">
      <g>
       <use style="stroke:#000000;stroke-width:0.8;" x="781.922345" xlink:href="#mc9df47fa15" y="229.621167"/>
      </g>
     </g>
     <g id="text_21">
      <!-- −400 -->
      <g transform="translate(768.188751 244.219604)scale(0.1 -0.1)">
       <use xlink:href="#DejaVuSans-8722"/>
       <use x="83.789062" xlink:href="#DejaVuSans-52"/>
       <use x="147.412109" xlink:href="#DejaVuSans-48"/>
       <use x="211.035156" xlink:href="#DejaVuSans-48"/>
      </g>
     </g>
    </g>
    <g id="xtick_13">
     <g id="line2d_20">
      <g>
       <use style="stroke:#000000;stroke-width:0.8;" x="827.137457" xlink:href="#mc9df47fa15" y="229.621167"/>
      </g>
     </g>
     <g id="text_22">
      <!-- −200 -->
      <g transform="translate(813.403863 244.219604)scale(0.1 -0.1)">
       <use xlink:href="#DejaVuSans-8722"/>
       <use x="83.789062" xlink:href="#DejaVuSans-50"/>
       <use x="147.412109" xlink:href="#DejaVuSans-48"/>
       <use x="211.035156" xlink:href="#DejaVuSans-48"/>
      </g>
     </g>
    </g>
    <g id="xtick_14">
     <g id="line2d_21">
      <g>
       <use style="stroke:#000000;stroke-width:0.8;" x="872.352568" xlink:href="#mc9df47fa15" y="229.621167"/>
      </g>
     </g>
     <g id="text_23">
      <!-- 0 -->
      <g transform="translate(869.171318 244.219604)scale(0.1 -0.1)">
       <use xlink:href="#DejaVuSans-48"/>
      </g>
     </g>
    </g>
    <g id="xtick_15">
     <g id="line2d_22">
      <g>
       <use style="stroke:#000000;stroke-width:0.8;" x="917.56768" xlink:href="#mc9df47fa15" y="229.621167"/>
      </g>
     </g>
     <g id="text_24">
      <!-- 200 -->
      <g transform="translate(908.02393 244.219604)scale(0.1 -0.1)">
       <use xlink:href="#DejaVuSans-50"/>
       <use x="63.623047" xlink:href="#DejaVuSans-48"/>
       <use x="127.246094" xlink:href="#DejaVuSans-48"/>
      </g>
     </g>
    </g>
    <g id="xtick_16">
     <g id="line2d_23">
      <g>
       <use style="stroke:#000000;stroke-width:0.8;" x="962.782791" xlink:href="#mc9df47fa15" y="229.621167"/>
      </g>
     </g>
     <g id="text_25">
      <!-- 400 -->
      <g transform="translate(953.239041 244.219604)scale(0.1 -0.1)">
       <use xlink:href="#DejaVuSans-52"/>
       <use x="63.623047" xlink:href="#DejaVuSans-48"/>
       <use x="127.246094" xlink:href="#DejaVuSans-48"/>
      </g>
     </g>
    </g>
    <g id="xtick_17">
     <g id="line2d_24">
      <g>
       <use style="stroke:#000000;stroke-width:0.8;" x="1007.997903" xlink:href="#mc9df47fa15" y="229.621167"/>
      </g>
     </g>
     <g id="text_26">
      <!-- 600 -->
      <g transform="translate(998.454153 244.219604)scale(0.1 -0.1)">
       <use xlink:href="#DejaVuSans-54"/>
       <use x="63.623047" xlink:href="#DejaVuSans-48"/>
       <use x="127.246094" xlink:href="#DejaVuSans-48"/>
      </g>
     </g>
    </g>
    <g id="xtick_18">
     <g id="line2d_25">
      <g>
       <use style="stroke:#000000;stroke-width:0.8;" x="1053.213015" xlink:href="#mc9df47fa15" y="229.621167"/>
      </g>
     </g>
     <g id="text_27">
      <!-- 800 -->
      <g transform="translate(1043.669265 244.219604)scale(0.1 -0.1)">
       <use xlink:href="#DejaVuSans-56"/>
       <use x="63.623047" xlink:href="#DejaVuSans-48"/>
       <use x="127.246094" xlink:href="#DejaVuSans-48"/>
      </g>
     </g>
    </g>
    <g id="text_28">
     <!-- k -->
     <defs>
      <path d="M 9.078125 75.984375 
L 18.109375 75.984375 
L 18.109375 31.109375 
L 44.921875 54.6875 
L 56.390625 54.6875 
L 27.390625 29.109375 
L 57.625 0 
L 45.90625 0 
L 18.109375 26.703125 
L 18.109375 0 
L 9.078125 0 
z
" id="DejaVuSans-107"/>
     </defs>
     <g transform="translate(869.27987 257.897729)scale(0.1 -0.1)">
      <use xlink:href="#DejaVuSans-107"/>
     </g>
    </g>
   </g>
   <g id="matplotlib.axis_4">
    <g id="ytick_7">
     <g id="line2d_26">
      <g>
       <use style="stroke:#000000;stroke-width:0.8;" x="672.562795" xlink:href="#mfebcbb426c" y="226.524584"/>
      </g>
     </g>
     <g id="text_29">
      <!-- −0.2 -->
      <g transform="translate(641.279983 230.323803)scale(0.1 -0.1)">
       <use xlink:href="#DejaVuSans-8722"/>
       <use x="83.789062" xlink:href="#DejaVuSans-48"/>
       <use x="147.412109" xlink:href="#DejaVuSans-46"/>
       <use x="179.199219" xlink:href="#DejaVuSans-50"/>
      </g>
     </g>
    </g>
    <g id="ytick_8">
     <g id="line2d_27">
      <g>
       <use style="stroke:#000000;stroke-width:0.8;" x="672.562795" xlink:href="#mfebcbb426c" y="191.90985"/>
      </g>
     </g>
     <g id="text_30">
      <!-- 0.0 -->
      <g transform="translate(649.65967 195.709069)scale(0.1 -0.1)">
       <use xlink:href="#DejaVuSans-48"/>
       <use x="63.623047" xlink:href="#DejaVuSans-46"/>
       <use x="95.410156" xlink:href="#DejaVuSans-48"/>
      </g>
     </g>
    </g>
    <g id="ytick_9">
     <g id="line2d_28">
      <g>
       <use style="stroke:#000000;stroke-width:0.8;" x="672.562795" xlink:href="#mfebcbb426c" y="157.295116"/>
      </g>
     </g>
     <g id="text_31">
      <!-- 0.2 -->
      <g transform="translate(649.65967 161.094335)scale(0.1 -0.1)">
       <use xlink:href="#DejaVuSans-48"/>
       <use x="63.623047" xlink:href="#DejaVuSans-46"/>
       <use x="95.410156" xlink:href="#DejaVuSans-50"/>
      </g>
     </g>
    </g>
    <g id="ytick_10">
     <g id="line2d_29">
      <g>
       <use style="stroke:#000000;stroke-width:0.8;" x="672.562795" xlink:href="#mfebcbb426c" y="122.680382"/>
      </g>
     </g>
     <g id="text_32">
      <!-- 0.4 -->
      <g transform="translate(649.65967 126.479601)scale(0.1 -0.1)">
       <use xlink:href="#DejaVuSans-48"/>
       <use x="63.623047" xlink:href="#DejaVuSans-46"/>
       <use x="95.410156" xlink:href="#DejaVuSans-52"/>
      </g>
     </g>
    </g>
    <g id="ytick_11">
     <g id="line2d_30">
      <g>
       <use style="stroke:#000000;stroke-width:0.8;" x="672.562795" xlink:href="#mfebcbb426c" y="88.065648"/>
      </g>
     </g>
     <g id="text_33">
      <!-- 0.6 -->
      <g transform="translate(649.65967 91.864867)scale(0.1 -0.1)">
       <use xlink:href="#DejaVuSans-48"/>
       <use x="63.623047" xlink:href="#DejaVuSans-46"/>
       <use x="95.410156" xlink:href="#DejaVuSans-54"/>
      </g>
     </g>
    </g>
    <g id="ytick_12">
     <g id="line2d_31">
      <g>
       <use style="stroke:#000000;stroke-width:0.8;" x="672.562795" xlink:href="#mfebcbb426c" y="53.450914"/>
      </g>
     </g>
     <g id="text_34">
      <!-- 0.8 -->
      <g transform="translate(649.65967 57.250133)scale(0.1 -0.1)">
       <use xlink:href="#DejaVuSans-48"/>
       <use x="63.623047" xlink:href="#DejaVuSans-46"/>
       <use x="95.410156" xlink:href="#DejaVuSans-56"/>
      </g>
     </g>
    </g>
    <g id="text_35">
     <!-- F(k) -->
     <g transform="translate(635.200295 147.13524)rotate(-90)scale(0.1 -0.1)">
      <use xlink:href="#DejaVuSans-70"/>
      <use x="57.519531" xlink:href="#DejaVuSans-40"/>
      <use x="96.533203" xlink:href="#DejaVuSans-107"/>
      <use x="154.443359" xlink:href="#DejaVuSans-41"/>
     </g>
    </g>
   </g>
   <g id="line2d_32">
    <path clip-path="url(#pd5bd12193a)" d="M 690.709376 191.90985 
L 691.064148 192.179827 
L 691.773691 191.639862 
L 692.483235 192.179858 
L 693.192779 191.639812 
L 693.902322 192.179929 
L 694.611866 191.63972 
L 695.32141 192.180041 
L 696.030954 191.639588 
L 696.740497 192.180194 
L 697.450041 191.639414 
L 698.159585 192.180387 
L 698.869128 191.6392 
L 699.578672 192.180622 
L 700.288216 191.638945 
L 700.99776 192.180898 
L 701.707303 191.638648 
L 702.416847 192.181216 
L 703.126391 191.63831 
L 703.835935 192.181575 
L 704.545478 191.63793 
L 705.255022 192.181976 
L 705.964566 191.637507 
L 706.674109 192.18242 
L 707.383653 191.637043 
L 708.093197 192.182906 
L 708.802741 191.636535 
L 709.512284 192.183435 
L 710.221828 191.635984 
L 710.931372 192.184007 
L 711.640915 191.63539 
L 712.350459 192.184624 
L 713.060003 191.634751 
L 713.769547 192.185285 
L 714.47909 191.634068 
L 715.188634 192.18599 
L 715.898178 191.63334 
L 716.607722 192.186741 
L 717.317265 191.632566 
L 718.026809 192.187539 
L 718.736353 191.631745 
L 719.445896 192.188382 
L 720.15544 191.630878 
L 720.864984 192.189273 
L 721.574528 191.629963 
L 722.284071 192.190213 
L 722.993615 191.628999 
L 723.703159 192.191201 
L 724.412702 191.627987 
L 725.122246 192.192238 
L 725.83179 191.626924 
L 726.541334 192.193327 
L 727.250877 191.62581 
L 727.960421 192.194466 
L 728.669965 191.624644 
L 729.379508 192.195659 
L 730.089052 191.623425 
L 730.798596 192.196904 
L 731.50814 191.622153 
L 732.217683 192.198204 
L 732.927227 191.620825 
L 733.636771 192.19956 
L 734.346315 191.619441 
L 735.055858 192.200973 
L 735.765402 191.617999 
L 736.474946 192.202443 
L 737.184489 191.616499 
L 737.894033 192.203973 
L 738.603577 191.614939 
L 739.313121 192.205564 
L 740.022664 191.613317 
L 740.732208 192.207218 
L 741.441752 191.611632 
L 742.151295 192.208935 
L 742.860839 191.609882 
L 743.570383 192.210718 
L 744.279927 191.608066 
L 744.98947 192.212568 
L 745.699014 191.606181 
L 746.408558 192.214487 
L 747.118101 191.604227 
L 747.827645 192.216477 
L 748.537189 191.602201 
L 749.246733 192.21854 
L 749.956276 191.6001 
L 750.66582 192.220678 
L 751.375364 191.597924 
L 752.084908 192.222893 
L 752.794451 191.595669 
L 753.503995 192.225188 
L 754.213539 191.593333 
L 754.923082 192.227565 
L 755.632626 191.590914 
L 756.34217 192.230027 
L 757.051714 191.588409 
L 757.761257 192.232577 
L 758.470801 191.585815 
L 759.180345 192.235216 
L 759.889888 191.583129 
L 760.599432 192.237949 
L 761.308976 191.580349 
L 762.01852 192.240778 
L 762.728063 191.57747 
L 763.437607 192.243708 
L 764.147151 191.574489 
L 764.856695 192.246741 
L 765.566238 191.571403 
L 766.275782 192.249881 
L 766.985326 191.568208 
L 767.694869 192.253132 
L 768.404413 191.564899 
L 769.113957 192.256499 
L 769.823501 191.561473 
L 770.533044 192.259986 
L 771.242588 191.557924 
L 771.952132 192.263598 
L 772.661675 191.554248 
L 773.371219 192.267339 
L 774.080763 191.55044 
L 774.790307 192.271215 
L 775.49985 191.546494 
L 776.209394 192.275232 
L 776.918938 191.542405 
L 777.628481 192.279395 
L 778.338025 191.538166 
L 779.047569 192.283712 
L 779.757113 191.533771 
L 780.466656 192.288188 
L 781.1762 191.529212 
L 781.885744 192.292831 
L 782.595288 191.524483 
L 783.304831 192.297648 
L 784.014375 191.519575 
L 784.723919 192.302648 
L 785.433462 191.514481 
L 786.143006 192.307839 
L 786.85255 191.50919 
L 787.562094 192.313231 
L 788.271637 191.503694 
L 788.981181 192.318834 
L 789.690725 191.497983 
L 790.400268 192.324658 
L 791.109812 191.492044 
L 791.819356 192.330714 
L 792.5289 191.485867 
L 793.238443 192.337015 
L 793.947987 191.479439 
L 794.657531 192.343574 
L 795.367075 191.472746 
L 796.076618 192.350404 
L 796.786162 191.465774 
L 797.495706 192.357522 
L 798.205249 191.458506 
L 798.914793 192.364943 
L 799.624337 191.450927 
L 800.333881 192.372686 
L 801.043424 191.443017 
L 801.752968 192.380768 
L 802.462512 191.434756 
L 803.172055 192.389212 
L 803.881599 191.426124 
L 804.591143 192.398038 
L 805.300687 191.417097 
L 806.01023 192.407272 
L 806.719774 191.40765 
L 807.429318 192.41694 
L 808.138861 191.397755 
L 808.848405 192.42707 
L 809.557949 191.387381 
L 810.267493 192.437695 
L 810.977036 191.376497 
L 811.68658 192.448848 
L 812.396124 191.365066 
L 813.105668 192.460567 
L 813.815211 191.353048 
L 814.524755 192.472894 
L 815.234299 191.3404 
L 815.943842 192.485874 
L 816.653386 191.327075 
L 817.36293 192.499558 
L 818.072474 191.313019 
L 818.782017 192.514001 
L 819.491561 191.298174 
L 820.201105 192.529264 
L 820.910648 191.282475 
L 821.620192 192.545417 
L 822.329736 191.265849 
L 823.03928 192.562537 
L 823.748823 191.248215 
L 824.458367 192.580707 
L 825.167911 191.229484 
L 825.877455 192.600025 
L 826.586998 191.209552 
L 827.296542 192.620599 
L 828.006086 191.188305 
L 828.715629 192.642551 
L 829.425173 191.165613 
L 830.134717 192.66602 
L 830.844261 191.141328 
L 831.553804 192.691164 
L 832.263348 191.115281 
L 832.972892 192.718163 
L 833.682435 191.087278 
L 834.391979 192.747225 
L 835.101523 191.057096 
L 835.811067 192.778591 
L 836.52061 191.024477 
L 837.230154 192.812539 
L 837.939698 190.989118 
L 838.649241 192.849396 
L 839.358785 190.950668 
L 840.068329 192.889544 
L 840.777873 190.908708 
L 841.487416 192.933438 
L 842.19696 190.862745 
L 842.906504 192.981619 
L 843.616048 190.812185 
L 844.325591 193.034736 
L 845.035135 190.756312 
L 845.744679 193.093582 
L 846.454222 190.694254 
L 847.163766 193.159122 
L 847.87331 190.624933 
L 848.582854 193.232556 
L 849.292397 190.547011 
L 850.001941 193.315387 
L 850.711485 190.458795 
L 851.421028 193.409527 
L 852.130572 190.358119 
L 852.840116 193.517441 
L 853.54966 190.242161 
L 854.259203 193.642372 
L 854.968747 190.107179 
L 855.678291 193.788663 
L 856.387834 189.948101 
L 857.097378 193.962276 
L 857.806922 189.757874 
L 858.516466 194.171616 
L 859.226009 189.526395 
L 859.935553 194.428932 
L 860.645097 189.238666 
L 861.354641 194.752797 
L 862.064184 188.87141 
L 862.773728 195.172786 
L 863.483272 188.386454 
L 864.192815 195.739051 
L 864.902359 187.716543 
L 865.611903 196.543976 
L 866.321447 186.731117 
L 867.03099 197.778491 
L 867.740534 185.138936 
L 868.450078 199.911237 
L 869.159621 182.130991 
L 869.869165 204.482038 
L 870.223937 191.90985 
L 870.578709 174.30945 
L 870.933481 191.90985 
L 871.288253 221.243114 
L 871.643024 191.90985 
L 871.997796 103.911163 
L 872.352568 53.682053 
L 872.70734 103.911163 
L 873.062112 191.90985 
L 873.416884 221.243114 
L 873.771656 191.90985 
L 874.126428 174.30945 
L 874.835971 204.482038 
L 875.545515 182.130991 
L 876.255059 199.911237 
L 876.964602 185.138936 
L 877.674146 197.778491 
L 878.38369 186.731117 
L 879.093234 196.543976 
L 879.802777 187.716543 
L 880.512321 195.739051 
L 881.221865 188.386454 
L 881.931408 195.172786 
L 882.640952 188.87141 
L 883.350496 194.752797 
L 884.06004 189.238666 
L 884.769583 194.428932 
L 885.479127 189.526395 
L 886.188671 194.171616 
L 886.898214 189.757874 
L 887.607758 193.962276 
L 888.317302 189.948101 
L 889.026846 193.788663 
L 889.736389 190.107179 
L 890.445933 193.642372 
L 891.155477 190.242161 
L 891.865021 193.517441 
L 892.574564 190.358119 
L 893.284108 193.409527 
L 893.993652 190.458795 
L 894.703195 193.315387 
L 895.412739 190.547011 
L 896.122283 193.232556 
L 896.831827 190.624933 
L 897.54137 193.159122 
L 898.250914 190.694254 
L 898.960458 193.093582 
L 899.670001 190.756312 
L 900.379545 193.034736 
L 901.089089 190.812185 
L 901.798633 192.981619 
L 902.508176 190.862745 
L 903.21772 192.933438 
L 903.927264 190.908708 
L 904.636808 192.889544 
L 905.346351 190.950668 
L 906.055895 192.849396 
L 906.765439 190.989118 
L 907.474982 192.812539 
L 908.184526 191.024477 
L 908.89407 192.778591 
L 909.603614 191.057096 
L 910.313157 192.747225 
L 911.022701 191.087278 
L 911.732245 192.718163 
L 912.441788 191.115281 
L 913.151332 192.691164 
L 913.860876 191.141328 
L 914.57042 192.66602 
L 915.279963 191.165613 
L 915.989507 192.642551 
L 916.699051 191.188305 
L 917.408594 192.620599 
L 918.118138 191.209552 
L 918.827682 192.600025 
L 919.537226 191.229484 
L 920.246769 192.580707 
L 920.956313 191.248215 
L 921.665857 192.562537 
L 922.375401 191.265849 
L 923.084944 192.545417 
L 923.794488 191.282475 
L 924.504032 192.529264 
L 925.213575 191.298174 
L 925.923119 192.514001 
L 926.632663 191.313019 
L 927.342207 192.499558 
L 928.05175 191.327075 
L 928.761294 192.485874 
L 929.470838 191.3404 
L 930.180381 192.472894 
L 930.889925 191.353048 
L 931.599469 192.460567 
L 932.309013 191.365066 
L 933.018556 192.448848 
L 933.7281 191.376497 
L 934.437644 192.437695 
L 935.147187 191.387381 
L 935.856731 192.42707 
L 936.566275 191.397755 
L 937.275819 192.41694 
L 937.985362 191.40765 
L 938.694906 192.407272 
L 939.40445 191.417097 
L 940.113994 192.398038 
L 940.823537 191.426124 
L 941.533081 192.389212 
L 942.242625 191.434756 
L 942.952168 192.380768 
L 943.661712 191.443017 
L 944.371256 192.372686 
L 945.0808 191.450927 
L 945.790343 192.364943 
L 946.499887 191.458506 
L 947.209431 192.357522 
L 947.918974 191.465774 
L 948.628518 192.350404 
L 949.338062 191.472746 
L 950.047606 192.343574 
L 950.757149 191.479439 
L 951.466693 192.337015 
L 952.176237 191.485867 
L 952.885781 192.330714 
L 953.595324 191.492044 
L 954.304868 192.324658 
L 955.014412 191.497983 
L 955.723955 192.318834 
L 956.433499 191.503694 
L 957.143043 192.313231 
L 957.852587 191.50919 
L 958.56213 192.307839 
L 959.271674 191.514481 
L 959.981218 192.302648 
L 960.690761 191.519575 
L 961.400305 192.297648 
L 962.109849 191.524483 
L 962.819393 192.292831 
L 963.528936 191.529212 
L 964.23848 192.288188 
L 964.948024 191.533771 
L 965.657567 192.283712 
L 966.367111 191.538166 
L 967.076655 192.279395 
L 967.786199 191.542405 
L 968.495742 192.275232 
L 969.205286 191.546494 
L 969.91483 192.271215 
L 970.624374 191.55044 
L 971.333917 192.267339 
L 972.043461 191.554248 
L 972.753005 192.263598 
L 973.462548 191.557924 
L 974.172092 192.259986 
L 974.881636 191.561473 
L 975.59118 192.256499 
L 976.300723 191.564899 
L 977.010267 192.253132 
L 977.719811 191.568208 
L 978.429354 192.249881 
L 979.138898 191.571403 
L 979.848442 192.246741 
L 980.557986 191.574489 
L 981.267529 192.243708 
L 981.977073 191.57747 
L 982.686617 192.240778 
L 983.396161 191.580349 
L 984.105704 192.237949 
L 984.815248 191.583129 
L 985.524792 192.235216 
L 986.234335 191.585815 
L 986.943879 192.232577 
L 987.653423 191.588409 
L 988.362967 192.230027 
L 989.07251 191.590914 
L 989.782054 192.227565 
L 990.491598 191.593333 
L 991.201141 192.225188 
L 991.910685 191.595669 
L 992.620229 192.222893 
L 993.329773 191.597924 
L 994.039316 192.220678 
L 994.74886 191.6001 
L 995.458404 192.21854 
L 996.167947 191.602201 
L 996.877491 192.216477 
L 997.587035 191.604227 
L 998.296579 192.214487 
L 999.006122 191.606181 
L 999.715666 192.212568 
L 1000.42521 191.608066 
L 1001.134754 192.210718 
L 1001.844297 191.609882 
L 1002.553841 192.208935 
L 1003.263385 191.611632 
L 1003.972928 192.207218 
L 1004.682472 191.613317 
L 1005.392016 192.205564 
L 1006.10156 191.614939 
L 1006.811103 192.203973 
L 1007.520647 191.616499 
L 1008.230191 192.202443 
L 1008.939734 191.617999 
L 1009.649278 192.200973 
L 1010.358822 191.619441 
L 1011.068366 192.19956 
L 1011.777909 191.620825 
L 1012.487453 192.198204 
L 1013.196997 191.622153 
L 1013.906541 192.196904 
L 1014.616084 191.623425 
L 1015.325628 192.195659 
L 1016.035172 191.624644 
L 1016.744715 192.194466 
L 1017.454259 191.62581 
L 1018.163803 192.193327 
L 1018.873347 191.626924 
L 1019.58289 192.192238 
L 1020.292434 191.627987 
L 1021.001978 192.191201 
L 1021.711521 191.628999 
L 1022.421065 192.190213 
L 1023.130609 191.629963 
L 1023.840153 192.189273 
L 1024.549696 191.630878 
L 1025.25924 192.188382 
L 1025.968784 191.631745 
L 1026.678327 192.187539 
L 1027.387871 191.632566 
L 1028.097415 192.186741 
L 1028.806959 191.63334 
L 1029.516502 192.18599 
L 1030.226046 191.634068 
L 1030.93559 192.185285 
L 1031.645134 191.634751 
L 1032.354677 192.184624 
L 1033.064221 191.63539 
L 1033.773765 192.184007 
L 1034.483308 191.635984 
L 1035.192852 192.183435 
L 1035.902396 191.636535 
L 1036.61194 192.182906 
L 1037.321483 191.637043 
L 1038.031027 192.18242 
L 1038.740571 191.637507 
L 1039.450114 192.181976 
L 1040.159658 191.63793 
L 1040.869202 192.181575 
L 1041.578746 191.63831 
L 1042.288289 192.181216 
L 1042.997833 191.638648 
L 1043.707377 192.180898 
L 1044.41692 191.638945 
L 1045.126464 192.180622 
L 1045.836008 191.6392 
L 1046.545552 192.180387 
L 1047.255095 191.639414 
L 1047.964639 192.180194 
L 1048.674183 191.639588 
L 1049.383727 192.180041 
L 1050.09327 191.63972 
L 1050.802814 192.179929 
L 1051.512358 191.639812 
L 1052.221901 192.179858 
L 1052.931445 191.639862 
L 1053.640989 192.179827 
L 1053.640989 192.179827 
" style="fill:none;stroke:#bf00bf;stroke-linecap:square;stroke-width:1.5;"/>
   </g>
   <g id="patch_8">
    <path d="M 672.562795 229.621167 
L 672.562795 45.304 
" style="fill:none;stroke:#000000;stroke-linecap:square;stroke-linejoin:miter;stroke-width:0.8;"/>
   </g>
   <g id="patch_9">
    <path d="M 1071.78757 229.621167 
L 1071.78757 45.304 
" style="fill:none;stroke:#000000;stroke-linecap:square;stroke-linejoin:miter;stroke-width:0.8;"/>
   </g>
   <g id="patch_10">
    <path d="M 672.562795 229.621167 
L 1071.78757 229.621167 
" style="fill:none;stroke:#000000;stroke-linecap:square;stroke-linejoin:miter;stroke-width:0.8;"/>
   </g>
   <g id="patch_11">
    <path d="M 672.562795 45.304 
L 1071.78757 45.304 
" style="fill:none;stroke:#000000;stroke-linecap:square;stroke-linejoin:miter;stroke-width:0.8;"/>
   </g>
   <g id="text_36">
    <!-- Fourier transform -->
    <defs>
     <path d="M 41.109375 46.296875 
Q 39.59375 47.171875 37.8125 47.578125 
Q 36.03125 48 33.890625 48 
Q 26.265625 48 22.1875 43.046875 
Q 18.109375 38.09375 18.109375 28.8125 
L 18.109375 0 
L 9.078125 0 
L 9.078125 54.6875 
L 18.109375 54.6875 
L 18.109375 46.1875 
Q 20.953125 51.171875 25.484375 53.578125 
Q 30.03125 56 36.53125 56 
Q 37.453125 56 38.578125 55.875 
Q 39.703125 55.765625 41.0625 55.515625 
z
" id="DejaVuSans-114"/>
     <path d="M 56.203125 29.59375 
L 56.203125 25.203125 
L 14.890625 25.203125 
Q 15.484375 15.921875 20.484375 11.0625 
Q 25.484375 6.203125 34.421875 6.203125 
Q 39.59375 6.203125 44.453125 7.46875 
Q 49.3125 8.734375 54.109375 11.28125 
L 54.109375 2.78125 
Q 49.265625 0.734375 44.1875 -0.34375 
Q 39.109375 -1.421875 33.890625 -1.421875 
Q 20.796875 -1.421875 13.15625 6.1875 
Q 5.515625 13.8125 5.515625 26.8125 
Q 5.515625 40.234375 12.765625 48.109375 
Q 20.015625 56 32.328125 56 
Q 43.359375 56 49.78125 48.890625 
Q 56.203125 41.796875 56.203125 29.59375 
z
M 47.21875 32.234375 
Q 47.125 39.59375 43.09375 43.984375 
Q 39.0625 48.390625 32.421875 48.390625 
Q 24.90625 48.390625 20.390625 44.140625 
Q 15.875 39.890625 15.1875 32.171875 
z
" id="DejaVuSans-101"/>
     <path id="DejaVuSans-32"/>
     <path d="M 34.28125 27.484375 
Q 23.390625 27.484375 19.1875 25 
Q 14.984375 22.515625 14.984375 16.5 
Q 14.984375 11.71875 18.140625 8.90625 
Q 21.296875 6.109375 26.703125 6.109375 
Q 34.1875 6.109375 38.703125 11.40625 
Q 43.21875 16.703125 43.21875 25.484375 
L 43.21875 27.484375 
z
M 52.203125 31.203125 
L 52.203125 0 
L 43.21875 0 
L 43.21875 8.296875 
Q 40.140625 3.328125 35.546875 0.953125 
Q 30.953125 -1.421875 24.3125 -1.421875 
Q 15.921875 -1.421875 10.953125 3.296875 
Q 6 8.015625 6 15.921875 
Q 6 25.140625 12.171875 29.828125 
Q 18.359375 34.515625 30.609375 34.515625 
L 43.21875 34.515625 
L 43.21875 35.40625 
Q 43.21875 41.609375 39.140625 45 
Q 35.0625 48.390625 27.6875 48.390625 
Q 23 48.390625 18.546875 47.265625 
Q 14.109375 46.140625 10.015625 43.890625 
L 10.015625 52.203125 
Q 14.9375 54.109375 19.578125 55.046875 
Q 24.21875 56 28.609375 56 
Q 40.484375 56 46.34375 49.84375 
Q 52.203125 43.703125 52.203125 31.203125 
z
" id="DejaVuSans-97"/>
     <path d="M 44.28125 53.078125 
L 44.28125 44.578125 
Q 40.484375 46.53125 36.375 47.5 
Q 32.28125 48.484375 27.875 48.484375 
Q 21.1875 48.484375 17.84375 46.4375 
Q 14.5 44.390625 14.5 40.28125 
Q 14.5 37.15625 16.890625 35.375 
Q 19.28125 33.59375 26.515625 31.984375 
L 29.59375 31.296875 
Q 39.15625 29.25 43.1875 25.515625 
Q 47.21875 21.78125 47.21875 15.09375 
Q 47.21875 7.46875 41.1875 3.015625 
Q 35.15625 -1.421875 24.609375 -1.421875 
Q 20.21875 -1.421875 15.453125 -0.5625 
Q 10.6875 0.296875 5.421875 2 
L 5.421875 11.28125 
Q 10.40625 8.6875 15.234375 7.390625 
Q 20.0625 6.109375 24.8125 6.109375 
Q 31.15625 6.109375 34.5625 8.28125 
Q 37.984375 10.453125 37.984375 14.40625 
Q 37.984375 18.0625 35.515625 20.015625 
Q 33.0625 21.96875 24.703125 23.78125 
L 21.578125 24.515625 
Q 13.234375 26.265625 9.515625 29.90625 
Q 5.8125 33.546875 5.8125 39.890625 
Q 5.8125 47.609375 11.28125 51.796875 
Q 16.75 56 26.8125 56 
Q 31.78125 56 36.171875 55.265625 
Q 40.578125 54.546875 44.28125 53.078125 
z
" id="DejaVuSans-115"/>
     <path d="M 52 44.1875 
Q 55.375 50.25 60.0625 53.125 
Q 64.75 56 71.09375 56 
Q 79.640625 56 84.28125 50.015625 
Q 88.921875 44.046875 88.921875 33.015625 
L 88.921875 0 
L 79.890625 0 
L 79.890625 32.71875 
Q 79.890625 40.578125 77.09375 44.375 
Q 74.3125 48.1875 68.609375 48.1875 
Q 61.625 48.1875 57.5625 43.546875 
Q 53.515625 38.921875 53.515625 30.90625 
L 53.515625 0 
L 44.484375 0 
L 44.484375 32.71875 
Q 44.484375 40.625 41.703125 44.40625 
Q 38.921875 48.1875 33.109375 48.1875 
Q 26.21875 48.1875 22.15625 43.53125 
Q 18.109375 38.875 18.109375 30.90625 
L 18.109375 0 
L 9.078125 0 
L 9.078125 54.6875 
L 18.109375 54.6875 
L 18.109375 46.1875 
Q 21.1875 51.21875 25.484375 53.609375 
Q 29.78125 56 35.6875 56 
Q 41.65625 56 45.828125 52.96875 
Q 50 49.953125 52 44.1875 
z
" id="DejaVuSans-109"/>
    </defs>
    <g transform="translate(819.85612 39.304)scale(0.12 -0.12)">
     <use xlink:href="#DejaVuSans-70"/>
     <use x="53.894531" xlink:href="#DejaVuSans-111"/>
     <use x="115.076172" xlink:href="#DejaVuSans-117"/>
     <use x="178.455078" xlink:href="#DejaVuSans-114"/>
     <use x="219.568359" xlink:href="#DejaVuSans-105"/>
     <use x="247.351562" xlink:href="#DejaVuSans-101"/>
     <use x="308.875" xlink:href="#DejaVuSans-114"/>
     <use x="349.988281" xlink:href="#DejaVuSans-32"/>
     <use x="381.775391" xlink:href="#DejaVuSans-116"/>
     <use x="420.984375" xlink:href="#DejaVuSans-114"/>
     <use x="462.097656" xlink:href="#DejaVuSans-97"/>
     <use x="523.376953" xlink:href="#DejaVuSans-110"/>
     <use x="586.755859" xlink:href="#DejaVuSans-115"/>
     <use x="638.855469" xlink:href="#DejaVuSans-102"/>
     <use x="674.060547" xlink:href="#DejaVuSans-111"/>
     <use x="735.242188" xlink:href="#DejaVuSans-114"/>
     <use x="774.605469" xlink:href="#DejaVuSans-109"/>
    </g>
   </g>
   <g id="legend_1">
    <g id="patch_12">
     <path d="M 973.446945 67.982125 
L 1064.78757 67.982125 
Q 1066.78757 67.982125 1066.78757 65.982125 
L 1066.78757 52.304 
Q 1066.78757 50.304 1064.78757 50.304 
L 973.446945 50.304 
Q 971.446945 50.304 971.446945 52.304 
L 971.446945 65.982125 
Q 971.446945 67.982125 973.446945 67.982125 
z
" style="fill:#ffffff;opacity:0.8;stroke:#cccccc;stroke-linejoin:miter;"/>
    </g>
    <g id="line2d_33">
     <path d="M 975.446945 58.402438 
L 995.446945 58.402438 
" style="fill:none;stroke:#bf00bf;stroke-linecap:square;stroke-width:1.5;"/>
    </g>
    <g id="line2d_34"/>
    <g id="text_37">
     <!-- 1024 points -->
     <defs>
      <path d="M 18.109375 8.203125 
L 18.109375 -20.796875 
L 9.078125 -20.796875 
L 9.078125 54.6875 
L 18.109375 54.6875 
L 18.109375 46.390625 
Q 20.953125 51.265625 25.265625 53.625 
Q 29.59375 56 35.59375 56 
Q 45.5625 56 51.78125 48.09375 
Q 58.015625 40.1875 58.015625 27.296875 
Q 58.015625 14.40625 51.78125 6.484375 
Q 45.5625 -1.421875 35.59375 -1.421875 
Q 29.59375 -1.421875 25.265625 0.953125 
Q 20.953125 3.328125 18.109375 8.203125 
z
M 48.6875 27.296875 
Q 48.6875 37.203125 44.609375 42.84375 
Q 40.53125 48.484375 33.40625 48.484375 
Q 26.265625 48.484375 22.1875 42.84375 
Q 18.109375 37.203125 18.109375 27.296875 
Q 18.109375 17.390625 22.1875 11.75 
Q 26.265625 6.109375 33.40625 6.109375 
Q 40.53125 6.109375 44.609375 11.75 
Q 48.6875 17.390625 48.6875 27.296875 
z
" id="DejaVuSans-112"/>
     </defs>
     <g transform="translate(1003.446945 61.902438)scale(0.1 -0.1)">
      <use xlink:href="#DejaVuSans-49"/>
      <use x="63.623047" xlink:href="#DejaVuSans-48"/>
      <use x="127.246094" xlink:href="#DejaVuSans-50"/>
      <use x="190.869141" xlink:href="#DejaVuSans-52"/>
      <use x="254.492188" xlink:href="#DejaVuSans-32"/>
      <use x="286.279297" xlink:href="#DejaVuSans-112"/>
      <use x="349.755859" xlink:href="#DejaVuSans-111"/>
      <use x="410.9375" xlink:href="#DejaVuSans-105"/>
      <use x="438.720703" xlink:href="#DejaVuSans-110"/>
      <use x="502.099609" xlink:href="#DejaVuSans-116"/>
      <use x="541.308594" xlink:href="#DejaVuSans-115"/>
     </g>
    </g>
   </g>
  </g>
  <g id="axes_3">
   <g id="patch_13">
    <path d="M 134.1375 511.759917 
L 533.362274 511.759917 
L 533.362274 327.44275 
L 134.1375 327.44275 
z
" style="fill:#ffffff;"/>
   </g>
   <g id="matplotlib.axis_5">
    <g id="xtick_19">
     <g id="line2d_35">
      <g>
       <use style="stroke:#000000;stroke-width:0.8;" x="152.890452" xlink:href="#mc9df47fa15" y="511.759917"/>
      </g>
     </g>
     <g id="text_38">
      <!-- −400 -->
      <g transform="translate(139.156859 526.358354)scale(0.1 -0.1)">
       <use xlink:href="#DejaVuSans-8722"/>
       <use x="83.789062" xlink:href="#DejaVuSans-52"/>
       <use x="147.412109" xlink:href="#DejaVuSans-48"/>
       <use x="211.035156" xlink:href="#DejaVuSans-48"/>
      </g>
     </g>
    </g>
    <g id="xtick_20">
     <g id="line2d_36">
      <g>
       <use style="stroke:#000000;stroke-width:0.8;" x="198.194091" xlink:href="#mc9df47fa15" y="511.759917"/>
      </g>
     </g>
     <g id="text_39">
      <!-- −300 -->
      <defs>
       <path d="M 40.578125 39.3125 
Q 47.65625 37.796875 51.625 33 
Q 55.609375 28.21875 55.609375 21.1875 
Q 55.609375 10.40625 48.1875 4.484375 
Q 40.765625 -1.421875 27.09375 -1.421875 
Q 22.515625 -1.421875 17.65625 -0.515625 
Q 12.796875 0.390625 7.625 2.203125 
L 7.625 11.71875 
Q 11.71875 9.328125 16.59375 8.109375 
Q 21.484375 6.890625 26.8125 6.890625 
Q 36.078125 6.890625 40.9375 10.546875 
Q 45.796875 14.203125 45.796875 21.1875 
Q 45.796875 27.640625 41.28125 31.265625 
Q 36.765625 34.90625 28.71875 34.90625 
L 20.21875 34.90625 
L 20.21875 43.015625 
L 29.109375 43.015625 
Q 36.375 43.015625 40.234375 45.921875 
Q 44.09375 48.828125 44.09375 54.296875 
Q 44.09375 59.90625 40.109375 62.90625 
Q 36.140625 65.921875 28.71875 65.921875 
Q 24.65625 65.921875 20.015625 65.03125 
Q 15.375 64.15625 9.8125 62.3125 
L 9.8125 71.09375 
Q 15.4375 72.65625 20.34375 73.4375 
Q 25.25 74.21875 29.59375 74.21875 
Q 40.828125 74.21875 47.359375 69.109375 
Q 53.90625 64.015625 53.90625 55.328125 
Q 53.90625 49.265625 50.4375 45.09375 
Q 46.96875 40.921875 40.578125 39.3125 
z
" id="DejaVuSans-51"/>
      </defs>
      <g transform="translate(184.460497 526.358354)scale(0.1 -0.1)">
       <use xlink:href="#DejaVuSans-8722"/>
       <use x="83.789062" xlink:href="#DejaVuSans-51"/>
       <use x="147.412109" xlink:href="#DejaVuSans-48"/>
       <use x="211.035156" xlink:href="#DejaVuSans-48"/>
      </g>
     </g>
    </g>
    <g id="xtick_21">
     <g id="line2d_37">
      <g>
       <use style="stroke:#000000;stroke-width:0.8;" x="243.497729" xlink:href="#mc9df47fa15" y="511.759917"/>
      </g>
     </g>
     <g id="text_40">
      <!-- −200 -->
      <g transform="translate(229.764136 526.358354)scale(0.1 -0.1)">
       <use xlink:href="#DejaVuSans-8722"/>
       <use x="83.789062" xlink:href="#DejaVuSans-50"/>
       <use x="147.412109" xlink:href="#DejaVuSans-48"/>
       <use x="211.035156" xlink:href="#DejaVuSans-48"/>
      </g>
     </g>
    </g>
    <g id="xtick_22">
     <g id="line2d_38">
      <g>
       <use style="stroke:#000000;stroke-width:0.8;" x="288.801368" xlink:href="#mc9df47fa15" y="511.759917"/>
      </g>
     </g>
     <g id="text_41">
      <!-- −100 -->
      <g transform="translate(275.067774 526.358354)scale(0.1 -0.1)">
       <use xlink:href="#DejaVuSans-8722"/>
       <use x="83.789062" xlink:href="#DejaVuSans-49"/>
       <use x="147.412109" xlink:href="#DejaVuSans-48"/>
       <use x="211.035156" xlink:href="#DejaVuSans-48"/>
      </g>
     </g>
    </g>
    <g id="xtick_23">
     <g id="line2d_39">
      <g>
       <use style="stroke:#000000;stroke-width:0.8;" x="334.105006" xlink:href="#mc9df47fa15" y="511.759917"/>
      </g>
     </g>
     <g id="text_42">
      <!-- 0 -->
      <g transform="translate(330.923756 526.358354)scale(0.1 -0.1)">
       <use xlink:href="#DejaVuSans-48"/>
      </g>
     </g>
    </g>
    <g id="xtick_24">
     <g id="line2d_40">
      <g>
       <use style="stroke:#000000;stroke-width:0.8;" x="379.408645" xlink:href="#mc9df47fa15" y="511.759917"/>
      </g>
     </g>
     <g id="text_43">
      <!-- 100 -->
      <g transform="translate(369.864895 526.358354)scale(0.1 -0.1)">
       <use xlink:href="#DejaVuSans-49"/>
       <use x="63.623047" xlink:href="#DejaVuSans-48"/>
       <use x="127.246094" xlink:href="#DejaVuSans-48"/>
      </g>
     </g>
    </g>
    <g id="xtick_25">
     <g id="line2d_41">
      <g>
       <use style="stroke:#000000;stroke-width:0.8;" x="424.712283" xlink:href="#mc9df47fa15" y="511.759917"/>
      </g>
     </g>
     <g id="text_44">
      <!-- 200 -->
      <g transform="translate(415.168533 526.358354)scale(0.1 -0.1)">
       <use xlink:href="#DejaVuSans-50"/>
       <use x="63.623047" xlink:href="#DejaVuSans-48"/>
       <use x="127.246094" xlink:href="#DejaVuSans-48"/>
      </g>
     </g>
    </g>
    <g id="xtick_26">
     <g id="line2d_42">
      <g>
       <use style="stroke:#000000;stroke-width:0.8;" x="470.015922" xlink:href="#mc9df47fa15" y="511.759917"/>
      </g>
     </g>
     <g id="text_45">
      <!-- 300 -->
      <g transform="translate(460.472172 526.358354)scale(0.1 -0.1)">
       <use xlink:href="#DejaVuSans-51"/>
       <use x="63.623047" xlink:href="#DejaVuSans-48"/>
       <use x="127.246094" xlink:href="#DejaVuSans-48"/>
      </g>
     </g>
    </g>
    <g id="xtick_27">
     <g id="line2d_43">
      <g>
       <use style="stroke:#000000;stroke-width:0.8;" x="515.31956" xlink:href="#mc9df47fa15" y="511.759917"/>
      </g>
     </g>
     <g id="text_46">
      <!-- 400 -->
      <g transform="translate(505.77581 526.358354)scale(0.1 -0.1)">
       <use xlink:href="#DejaVuSans-52"/>
       <use x="63.623047" xlink:href="#DejaVuSans-48"/>
       <use x="127.246094" xlink:href="#DejaVuSans-48"/>
      </g>
     </g>
    </g>
    <g id="text_47">
     <!-- k -->
     <g transform="translate(330.854575 540.036479)scale(0.1 -0.1)">
      <use xlink:href="#DejaVuSans-107"/>
     </g>
    </g>
   </g>
   <g id="matplotlib.axis_6">
    <g id="ytick_13">
     <g id="line2d_44">
      <g>
       <use style="stroke:#000000;stroke-width:0.8;" x="134.1375" xlink:href="#mfebcbb426c" y="508.628216"/>
      </g>
     </g>
     <g id="text_48">
      <!-- −0.2 -->
      <g transform="translate(102.854688 512.427435)scale(0.1 -0.1)">
       <use xlink:href="#DejaVuSans-8722"/>
       <use x="83.789062" xlink:href="#DejaVuSans-48"/>
       <use x="147.412109" xlink:href="#DejaVuSans-46"/>
       <use x="179.199219" xlink:href="#DejaVuSans-50"/>
      </g>
     </g>
    </g>
    <g id="ytick_14">
     <g id="line2d_45">
      <g>
       <use style="stroke:#000000;stroke-width:0.8;" x="134.1375" xlink:href="#mfebcbb426c" y="474.047575"/>
      </g>
     </g>
     <g id="text_49">
      <!-- 0.0 -->
      <g transform="translate(111.234375 477.846794)scale(0.1 -0.1)">
       <use xlink:href="#DejaVuSans-48"/>
       <use x="63.623047" xlink:href="#DejaVuSans-46"/>
       <use x="95.410156" xlink:href="#DejaVuSans-48"/>
      </g>
     </g>
    </g>
    <g id="ytick_15">
     <g id="line2d_46">
      <g>
       <use style="stroke:#000000;stroke-width:0.8;" x="134.1375" xlink:href="#mfebcbb426c" y="439.466934"/>
      </g>
     </g>
     <g id="text_50">
      <!-- 0.2 -->
      <g transform="translate(111.234375 443.266153)scale(0.1 -0.1)">
       <use xlink:href="#DejaVuSans-48"/>
       <use x="63.623047" xlink:href="#DejaVuSans-46"/>
       <use x="95.410156" xlink:href="#DejaVuSans-50"/>
      </g>
     </g>
    </g>
    <g id="ytick_16">
     <g id="line2d_47">
      <g>
       <use style="stroke:#000000;stroke-width:0.8;" x="134.1375" xlink:href="#mfebcbb426c" y="404.886293"/>
      </g>
     </g>
     <g id="text_51">
      <!-- 0.4 -->
      <g transform="translate(111.234375 408.685512)scale(0.1 -0.1)">
       <use xlink:href="#DejaVuSans-48"/>
       <use x="63.623047" xlink:href="#DejaVuSans-46"/>
       <use x="95.410156" xlink:href="#DejaVuSans-52"/>
      </g>
     </g>
    </g>
    <g id="ytick_17">
     <g id="line2d_48">
      <g>
       <use style="stroke:#000000;stroke-width:0.8;" x="134.1375" xlink:href="#mfebcbb426c" y="370.305652"/>
      </g>
     </g>
     <g id="text_52">
      <!-- 0.6 -->
      <g transform="translate(111.234375 374.104871)scale(0.1 -0.1)">
       <use xlink:href="#DejaVuSans-48"/>
       <use x="63.623047" xlink:href="#DejaVuSans-46"/>
       <use x="95.410156" xlink:href="#DejaVuSans-54"/>
      </g>
     </g>
    </g>
    <g id="ytick_18">
     <g id="line2d_49">
      <g>
       <use style="stroke:#000000;stroke-width:0.8;" x="134.1375" xlink:href="#mfebcbb426c" y="335.725011"/>
      </g>
     </g>
     <g id="text_53">
      <!-- 0.8 -->
      <g transform="translate(111.234375 339.52423)scale(0.1 -0.1)">
       <use xlink:href="#DejaVuSans-48"/>
       <use x="63.623047" xlink:href="#DejaVuSans-46"/>
       <use x="95.410156" xlink:href="#DejaVuSans-56"/>
      </g>
     </g>
    </g>
    <g id="text_54">
     <!-- F(k) -->
     <g transform="translate(96.775 429.27399)rotate(-90)scale(0.1 -0.1)">
      <use xlink:href="#DejaVuSans-70"/>
      <use x="57.519531" xlink:href="#DejaVuSans-40"/>
      <use x="96.533203" xlink:href="#DejaVuSans-107"/>
      <use x="154.443359" xlink:href="#DejaVuSans-41"/>
     </g>
    </g>
   </g>
   <g id="line2d_50">
    <path clip-path="url(#pd6a42bdfc0)" d="M 152.284081 474.047575 
L 152.994319 474.587533 
L 154.414795 473.507535 
L 155.835271 474.587778 
L 157.255747 473.507128 
L 158.676223 474.588348 
L 160.096699 473.506394 
L 161.517175 474.589246 
L 162.937651 473.505332 
L 164.358126 474.590474 
L 165.778602 473.503936 
L 167.199078 474.592037 
L 168.619554 473.502205 
L 170.04003 474.593939 
L 171.460506 473.500131 
L 172.880982 474.596186 
L 174.301458 473.497709 
L 175.721934 474.598785 
L 177.14241 473.494931 
L 178.562886 474.601744 
L 179.983362 473.491789 
L 181.403838 474.605072 
L 182.824314 473.488272 
L 184.24479 474.608781 
L 185.665266 473.484368 
L 187.085742 474.612882 
L 188.506218 473.480066 
L 189.926694 474.61739 
L 191.34717 473.475349 
L 192.767646 474.622319 
L 194.188122 473.470203 
L 195.608598 474.627686 
L 197.029074 473.46461 
L 198.44955 474.633511 
L 199.870026 473.458548 
L 201.290502 474.639814 
L 202.710978 473.451997 
L 204.131454 474.64662 
L 205.55193 473.444931 
L 206.972406 474.653953 
L 208.392882 473.437324 
L 209.813358 474.661842 
L 211.233834 473.429145 
L 212.65431 474.67032 
L 214.074786 473.42036 
L 215.495262 474.67942 
L 216.915738 473.410934 
L 218.336214 474.689183 
L 219.75669 473.400824 
L 221.177166 474.699651 
L 222.597642 473.389986 
L 224.018118 474.710873 
L 225.438594 473.378368 
L 226.85907 474.722901 
L 228.279546 473.365914 
L 229.700022 474.735796 
L 231.120498 473.352561 
L 232.540974 474.749624 
L 233.96145 473.338239 
L 235.381926 474.76446 
L 236.802402 473.322868 
L 238.222878 474.780387 
L 239.643353 473.306361 
L 241.063829 474.797501 
L 242.484305 473.288615 
L 243.904781 474.815906 
L 245.325257 473.269519 
L 246.745733 474.835724 
L 248.166209 473.248944 
L 249.586685 474.857093 
L 251.007161 473.226744 
L 252.427637 474.880168 
L 253.848113 473.20275 
L 255.268589 474.905128 
L 256.689065 473.176771 
L 258.109541 474.932181 
L 259.530017 473.148585 
L 260.950493 474.961565 
L 262.370969 473.117934 
L 263.791445 474.993557 
L 265.211921 473.084519 
L 266.632397 475.028482 
L 268.052873 473.047988 
L 269.473349 475.066723 
L 270.893825 473.007925 
L 272.314301 475.108731 
L 273.734777 472.963837 
L 275.155253 475.155047 
L 276.575729 472.915131 
L 277.996205 475.206321 
L 279.416681 472.861093 
L 280.837157 475.26334 
L 282.257633 472.800851 
L 283.678109 475.327073 
L 285.098585 472.733331 
L 286.519061 475.398715 
L 287.939537 472.657192 
L 289.360013 475.479771 
L 290.780489 472.570745 
L 292.200965 475.572149 
L 293.621441 472.471823 
L 295.041917 475.678315 
L 296.462393 472.357607 
L 297.882869 475.80151 
L 299.303345 472.224355 
L 300.723821 475.946077 
L 302.144297 472.066995 
L 303.564773 476.117976 
L 304.985249 471.878477 
L 306.405725 476.325611 
L 307.826201 471.648699 
L 309.246677 476.581231 
L 310.667153 471.362663 
L 312.087629 476.903407 
L 313.508105 470.997092 
L 314.92858 477.321713 
L 316.349056 470.513817 
L 317.769532 477.8863 
L 319.190008 469.845581 
L 320.610484 478.689551 
L 322.03096 468.861829 
L 323.451436 479.922392 
L 324.871912 467.271322 
L 325.58215 474.047575 
L 326.292388 482.053461 
L 327.002626 474.047575 
L 327.712864 464.26506 
L 328.423102 474.047575 
L 329.13334 486.622569 
L 329.843578 474.047575 
L 330.553816 456.445235 
L 331.264054 474.047575 
L 331.974292 503.381864 
L 332.68453 474.047575 
L 333.394768 386.049127 
L 334.105006 335.820803 
L 334.815244 386.049127 
L 335.525482 474.047575 
L 336.23572 503.381864 
L 336.945958 474.047575 
L 337.656196 456.445235 
L 338.366434 474.047575 
L 339.076672 486.622569 
L 339.78691 474.047575 
L 340.497148 464.26506 
L 341.207386 474.047575 
L 341.917624 482.053461 
L 343.3381 467.271322 
L 344.758576 479.922392 
L 346.179052 468.861829 
L 347.599528 478.689551 
L 349.020004 469.845581 
L 350.44048 477.8863 
L 351.860956 470.513817 
L 353.281432 477.321713 
L 354.701908 470.997092 
L 356.122384 476.903407 
L 357.54286 471.362663 
L 358.963336 476.581231 
L 360.383812 471.648699 
L 361.804288 476.325611 
L 363.224764 471.878477 
L 364.64524 476.117976 
L 366.065716 472.066995 
L 367.486192 475.946077 
L 368.906668 472.224355 
L 370.327144 475.80151 
L 371.74762 472.357607 
L 373.168096 475.678315 
L 374.588572 472.471823 
L 376.009048 475.572149 
L 377.429524 472.570745 
L 378.85 475.479771 
L 380.270476 472.657192 
L 381.690952 475.398715 
L 383.111428 472.733331 
L 384.531904 475.327073 
L 385.95238 472.800851 
L 387.372856 475.26334 
L 388.793332 472.861093 
L 390.213807 475.206321 
L 391.634283 472.915131 
L 393.054759 475.155047 
L 394.475235 472.963837 
L 395.895711 475.108731 
L 397.316187 473.007925 
L 398.736663 475.066723 
L 400.157139 473.047988 
L 401.577615 475.028482 
L 402.998091 473.084519 
L 404.418567 474.993557 
L 405.839043 473.117934 
L 407.259519 474.961565 
L 408.679995 473.148585 
L 410.100471 474.932181 
L 411.520947 473.176771 
L 412.941423 474.905128 
L 414.361899 473.20275 
L 415.782375 474.880168 
L 417.202851 473.226744 
L 418.623327 474.857093 
L 420.043803 473.248944 
L 421.464279 474.835724 
L 422.884755 473.269519 
L 424.305231 474.815906 
L 425.725707 473.288615 
L 427.146183 474.797501 
L 428.566659 473.306361 
L 429.987135 474.780387 
L 431.407611 473.322868 
L 432.828087 474.76446 
L 434.248563 473.338239 
L 435.669039 474.749624 
L 437.089515 473.352561 
L 438.509991 474.735796 
L 439.930467 473.365914 
L 441.350943 474.722901 
L 442.771419 473.378368 
L 444.191895 474.710873 
L 445.612371 473.389986 
L 447.032847 474.699651 
L 448.453323 473.400824 
L 449.873799 474.689183 
L 451.294275 473.410934 
L 452.714751 474.67942 
L 454.135227 473.42036 
L 455.555703 474.67032 
L 456.976179 473.429145 
L 458.396655 474.661842 
L 459.817131 473.437324 
L 461.237607 474.653953 
L 462.658083 473.444931 
L 464.078559 474.64662 
L 465.499034 473.451997 
L 466.91951 474.639814 
L 468.339986 473.458548 
L 469.760462 474.633511 
L 471.180938 473.46461 
L 472.601414 474.627686 
L 474.02189 473.470203 
L 475.442366 474.622319 
L 476.862842 473.475349 
L 478.283318 474.61739 
L 479.703794 473.480066 
L 481.12427 474.612882 
L 482.544746 473.484368 
L 483.965222 474.608781 
L 485.385698 473.488272 
L 486.806174 474.605072 
L 488.22665 473.491789 
L 489.647126 474.601744 
L 491.067602 473.494931 
L 492.488078 474.598785 
L 493.908554 473.497709 
L 495.32903 474.596186 
L 496.749506 473.500131 
L 498.169982 474.593939 
L 499.590458 473.502205 
L 501.010934 474.592037 
L 502.43141 473.503936 
L 503.851886 474.590474 
L 505.272362 473.505332 
L 506.692838 474.589246 
L 508.113314 473.506394 
L 509.53379 474.588348 
L 510.954266 473.507128 
L 512.374742 474.587778 
L 513.795218 473.507535 
L 515.215694 474.587533 
L 515.215694 474.587533 
" style="fill:none;stroke:#bfbf00;stroke-linecap:square;stroke-width:1.5;"/>
   </g>
   <g id="patch_14">
    <path d="M 134.1375 511.759917 
L 134.1375 327.44275 
" style="fill:none;stroke:#000000;stroke-linecap:square;stroke-linejoin:miter;stroke-width:0.8;"/>
   </g>
   <g id="patch_15">
    <path d="M 533.362274 511.759917 
L 533.362274 327.44275 
" style="fill:none;stroke:#000000;stroke-linecap:square;stroke-linejoin:miter;stroke-width:0.8;"/>
   </g>
   <g id="patch_16">
    <path d="M 134.1375 511.759917 
L 533.362274 511.759917 
" style="fill:none;stroke:#000000;stroke-linecap:square;stroke-linejoin:miter;stroke-width:0.8;"/>
   </g>
   <g id="patch_17">
    <path d="M 134.1375 327.44275 
L 533.362274 327.44275 
" style="fill:none;stroke:#000000;stroke-linecap:square;stroke-linejoin:miter;stroke-width:0.8;"/>
   </g>
   <g id="text_55">
    <!-- Fourier transform -->
    <g transform="translate(281.430825 321.44275)scale(0.12 -0.12)">
     <use xlink:href="#DejaVuSans-70"/>
     <use x="53.894531" xlink:href="#DejaVuSans-111"/>
     <use x="115.076172" xlink:href="#DejaVuSans-117"/>
     <use x="178.455078" xlink:href="#DejaVuSans-114"/>
     <use x="219.568359" xlink:href="#DejaVuSans-105"/>
     <use x="247.351562" xlink:href="#DejaVuSans-101"/>
     <use x="308.875" xlink:href="#DejaVuSans-114"/>
     <use x="349.988281" xlink:href="#DejaVuSans-32"/>
     <use x="381.775391" xlink:href="#DejaVuSans-116"/>
     <use x="420.984375" xlink:href="#DejaVuSans-114"/>
     <use x="462.097656" xlink:href="#DejaVuSans-97"/>
     <use x="523.376953" xlink:href="#DejaVuSans-110"/>
     <use x="586.755859" xlink:href="#DejaVuSans-115"/>
     <use x="638.855469" xlink:href="#DejaVuSans-102"/>
     <use x="674.060547" xlink:href="#DejaVuSans-111"/>
     <use x="735.242188" xlink:href="#DejaVuSans-114"/>
     <use x="774.605469" xlink:href="#DejaVuSans-109"/>
    </g>
   </g>
   <g id="legend_2">
    <g id="patch_18">
     <path d="M 441.384149 350.120875 
L 526.362274 350.120875 
Q 528.362274 350.120875 528.362274 348.120875 
L 528.362274 334.44275 
Q 528.362274 332.44275 526.362274 332.44275 
L 441.384149 332.44275 
Q 439.384149 332.44275 439.384149 334.44275 
L 439.384149 348.120875 
Q 439.384149 350.120875 441.384149 350.120875 
z
" style="fill:#ffffff;opacity:0.8;stroke:#cccccc;stroke-linejoin:miter;"/>
    </g>
    <g id="line2d_51">
     <path d="M 443.384149 340.541188 
L 463.384149 340.541188 
" style="fill:none;stroke:#bfbf00;stroke-linecap:square;stroke-width:1.5;"/>
    </g>
    <g id="line2d_52"/>
    <g id="text_56">
     <!-- 512 points -->
     <g transform="translate(471.384149 344.041188)scale(0.1 -0.1)">
      <use xlink:href="#DejaVuSans-53"/>
      <use x="63.623047" xlink:href="#DejaVuSans-49"/>
      <use x="127.246094" xlink:href="#DejaVuSans-50"/>
      <use x="190.869141" xlink:href="#DejaVuSans-32"/>
      <use x="222.65625" xlink:href="#DejaVuSans-112"/>
      <use x="286.132812" xlink:href="#DejaVuSans-111"/>
      <use x="347.314453" xlink:href="#DejaVuSans-105"/>
      <use x="375.097656" xlink:href="#DejaVuSans-110"/>
      <use x="438.476562" xlink:href="#DejaVuSans-116"/>
      <use x="477.685547" xlink:href="#DejaVuSans-115"/>
     </g>
    </g>
   </g>
  </g>
  <g id="axes_4">
   <g id="patch_19">
    <path d="M 672.562795 511.759917 
L 1071.78757 511.759917 
L 1071.78757 327.44275 
L 672.562795 327.44275 
z
" style="fill:#ffffff;"/>
   </g>
   <g id="matplotlib.axis_7">
    <g id="xtick_28">
     <g id="line2d_53">
      <g>
       <use style="stroke:#000000;stroke-width:0.8;" x="690.960917" xlink:href="#mc9df47fa15" y="511.759917"/>
      </g>
     </g>
     <g id="text_57">
      <!-- −200 -->
      <g transform="translate(677.227323 526.358354)scale(0.1 -0.1)">
       <use xlink:href="#DejaVuSans-8722"/>
       <use x="83.789062" xlink:href="#DejaVuSans-50"/>
       <use x="147.412109" xlink:href="#DejaVuSans-48"/>
       <use x="211.035156" xlink:href="#DejaVuSans-48"/>
      </g>
     </g>
    </g>
    <g id="xtick_29">
     <g id="line2d_54">
      <g>
       <use style="stroke:#000000;stroke-width:0.8;" x="736.442391" xlink:href="#mc9df47fa15" y="511.759917"/>
      </g>
     </g>
     <g id="text_58">
      <!-- −150 -->
      <g transform="translate(722.708797 526.358354)scale(0.1 -0.1)">
       <use xlink:href="#DejaVuSans-8722"/>
       <use x="83.789062" xlink:href="#DejaVuSans-49"/>
       <use x="147.412109" xlink:href="#DejaVuSans-53"/>
       <use x="211.035156" xlink:href="#DejaVuSans-48"/>
      </g>
     </g>
    </g>
    <g id="xtick_30">
     <g id="line2d_55">
      <g>
       <use style="stroke:#000000;stroke-width:0.8;" x="781.923865" xlink:href="#mc9df47fa15" y="511.759917"/>
      </g>
     </g>
     <g id="text_59">
      <!-- −100 -->
      <g transform="translate(768.190271 526.358354)scale(0.1 -0.1)">
       <use xlink:href="#DejaVuSans-8722"/>
       <use x="83.789062" xlink:href="#DejaVuSans-49"/>
       <use x="147.412109" xlink:href="#DejaVuSans-48"/>
       <use x="211.035156" xlink:href="#DejaVuSans-48"/>
      </g>
     </g>
    </g>
    <g id="xtick_31">
     <g id="line2d_56">
      <g>
       <use style="stroke:#000000;stroke-width:0.8;" x="827.405339" xlink:href="#mc9df47fa15" y="511.759917"/>
      </g>
     </g>
     <g id="text_60">
      <!-- −50 -->
      <g transform="translate(816.852995 526.358354)scale(0.1 -0.1)">
       <use xlink:href="#DejaVuSans-8722"/>
       <use x="83.789062" xlink:href="#DejaVuSans-53"/>
       <use x="147.412109" xlink:href="#DejaVuSans-48"/>
      </g>
     </g>
    </g>
    <g id="xtick_32">
     <g id="line2d_57">
      <g>
       <use style="stroke:#000000;stroke-width:0.8;" x="872.886813" xlink:href="#mc9df47fa15" y="511.759917"/>
      </g>
     </g>
     <g id="text_61">
      <!-- 0 -->
      <g transform="translate(869.705563 526.358354)scale(0.1 -0.1)">
       <use xlink:href="#DejaVuSans-48"/>
      </g>
     </g>
    </g>
    <g id="xtick_33">
     <g id="line2d_58">
      <g>
       <use style="stroke:#000000;stroke-width:0.8;" x="918.368287" xlink:href="#mc9df47fa15" y="511.759917"/>
      </g>
     </g>
     <g id="text_62">
      <!-- 50 -->
      <g transform="translate(912.005787 526.358354)scale(0.1 -0.1)">
       <use xlink:href="#DejaVuSans-53"/>
       <use x="63.623047" xlink:href="#DejaVuSans-48"/>
      </g>
     </g>
    </g>
    <g id="xtick_34">
     <g id="line2d_59">
      <g>
       <use style="stroke:#000000;stroke-width:0.8;" x="963.849761" xlink:href="#mc9df47fa15" y="511.759917"/>
      </g>
     </g>
     <g id="text_63">
      <!-- 100 -->
      <g transform="translate(954.306011 526.358354)scale(0.1 -0.1)">
       <use xlink:href="#DejaVuSans-49"/>
       <use x="63.623047" xlink:href="#DejaVuSans-48"/>
       <use x="127.246094" xlink:href="#DejaVuSans-48"/>
      </g>
     </g>
    </g>
    <g id="xtick_35">
     <g id="line2d_60">
      <g>
       <use style="stroke:#000000;stroke-width:0.8;" x="1009.331235" xlink:href="#mc9df47fa15" y="511.759917"/>
      </g>
     </g>
     <g id="text_64">
      <!-- 150 -->
      <g transform="translate(999.787485 526.358354)scale(0.1 -0.1)">
       <use xlink:href="#DejaVuSans-49"/>
       <use x="63.623047" xlink:href="#DejaVuSans-53"/>
       <use x="127.246094" xlink:href="#DejaVuSans-48"/>
      </g>
     </g>
    </g>
    <g id="xtick_36">
     <g id="line2d_61">
      <g>
       <use style="stroke:#000000;stroke-width:0.8;" x="1054.812709" xlink:href="#mc9df47fa15" y="511.759917"/>
      </g>
     </g>
     <g id="text_65">
      <!-- 200 -->
      <g transform="translate(1045.268959 526.358354)scale(0.1 -0.1)">
       <use xlink:href="#DejaVuSans-50"/>
       <use x="63.623047" xlink:href="#DejaVuSans-48"/>
       <use x="127.246094" xlink:href="#DejaVuSans-48"/>
      </g>
     </g>
    </g>
    <g id="text_66">
     <!-- k -->
     <g transform="translate(869.27987 540.036479)scale(0.1 -0.1)">
      <use xlink:href="#DejaVuSans-107"/>
     </g>
    </g>
   </g>
   <g id="matplotlib.axis_8">
    <g id="ytick_19">
     <g id="line2d_62">
      <g>
       <use style="stroke:#000000;stroke-width:0.8;" x="672.562795" xlink:href="#mfebcbb426c" y="508.555419"/>
      </g>
     </g>
     <g id="text_67">
      <!-- −0.2 -->
      <g transform="translate(641.279983 512.354638)scale(0.1 -0.1)">
       <use xlink:href="#DejaVuSans-8722"/>
       <use x="83.789062" xlink:href="#DejaVuSans-48"/>
       <use x="147.412109" xlink:href="#DejaVuSans-46"/>
       <use x="179.199219" xlink:href="#DejaVuSans-50"/>
      </g>
     </g>
    </g>
    <g id="ytick_20">
     <g id="line2d_63">
      <g>
       <use style="stroke:#000000;stroke-width:0.8;" x="672.562795" xlink:href="#mfebcbb426c" y="474.043475"/>
      </g>
     </g>
     <g id="text_68">
      <!-- 0.0 -->
      <g transform="translate(649.65967 477.842693)scale(0.1 -0.1)">
       <use xlink:href="#DejaVuSans-48"/>
       <use x="63.623047" xlink:href="#DejaVuSans-46"/>
       <use x="95.410156" xlink:href="#DejaVuSans-48"/>
      </g>
     </g>
    </g>
    <g id="ytick_21">
     <g id="line2d_64">
      <g>
       <use style="stroke:#000000;stroke-width:0.8;" x="672.562795" xlink:href="#mfebcbb426c" y="439.53153"/>
      </g>
     </g>
     <g id="text_69">
      <!-- 0.2 -->
      <g transform="translate(649.65967 443.330749)scale(0.1 -0.1)">
       <use xlink:href="#DejaVuSans-48"/>
       <use x="63.623047" xlink:href="#DejaVuSans-46"/>
       <use x="95.410156" xlink:href="#DejaVuSans-50"/>
      </g>
     </g>
    </g>
    <g id="ytick_22">
     <g id="line2d_65">
      <g>
       <use style="stroke:#000000;stroke-width:0.8;" x="672.562795" xlink:href="#mfebcbb426c" y="405.019585"/>
      </g>
     </g>
     <g id="text_70">
      <!-- 0.4 -->
      <g transform="translate(649.65967 408.818804)scale(0.1 -0.1)">
       <use xlink:href="#DejaVuSans-48"/>
       <use x="63.623047" xlink:href="#DejaVuSans-46"/>
       <use x="95.410156" xlink:href="#DejaVuSans-52"/>
      </g>
     </g>
    </g>
    <g id="ytick_23">
     <g id="line2d_66">
      <g>
       <use style="stroke:#000000;stroke-width:0.8;" x="672.562795" xlink:href="#mfebcbb426c" y="370.50764"/>
      </g>
     </g>
     <g id="text_71">
      <!-- 0.6 -->
      <g transform="translate(649.65967 374.306859)scale(0.1 -0.1)">
       <use xlink:href="#DejaVuSans-48"/>
       <use x="63.623047" xlink:href="#DejaVuSans-46"/>
       <use x="95.410156" xlink:href="#DejaVuSans-54"/>
      </g>
     </g>
    </g>
    <g id="ytick_24">
     <g id="line2d_67">
      <g>
       <use style="stroke:#000000;stroke-width:0.8;" x="672.562795" xlink:href="#mfebcbb426c" y="335.995696"/>
      </g>
     </g>
     <g id="text_72">
      <!-- 0.8 -->
      <g transform="translate(649.65967 339.794914)scale(0.1 -0.1)">
       <use xlink:href="#DejaVuSans-48"/>
       <use x="63.623047" xlink:href="#DejaVuSans-46"/>
       <use x="95.410156" xlink:href="#DejaVuSans-56"/>
      </g>
     </g>
    </g>
    <g id="text_73">
     <!-- F(k) -->
     <g transform="translate(635.200295 429.27399)rotate(-90)scale(0.1 -0.1)">
      <use xlink:href="#DejaVuSans-70"/>
      <use x="57.519531" xlink:href="#DejaVuSans-40"/>
      <use x="96.533203" xlink:href="#DejaVuSans-107"/>
      <use x="154.443359" xlink:href="#DejaVuSans-41"/>
     </g>
    </g>
   </g>
   <g id="line2d_68">
    <path clip-path="url(#p3e0b1a321b)" d="M 690.709376 474.043475 
L 692.132637 475.123421 
L 694.979159 472.962878 
L 697.825682 475.125375 
L 700.672204 472.959613 
L 703.518727 475.129959 
L 706.365249 472.953696 
L 709.211772 475.137228 
L 712.058294 472.945053 
L 714.904817 475.147273 
L 717.751339 472.933576 
L 720.597861 475.160218 
L 723.444384 472.91912 
L 726.290906 475.176232 
L 729.137429 472.901495 
L 731.983951 475.195528 
L 734.830474 472.880462 
L 737.676996 475.218372 
L 740.523519 472.855724 
L 743.370041 475.245094 
L 746.216564 472.826917 
L 749.063086 475.276098 
L 751.909609 472.793592 
L 754.756131 475.311881 
L 757.602653 472.755199 
L 760.449176 475.353053 
L 763.295698 472.711061 
L 766.142221 475.400367 
L 768.988743 472.66034 
L 771.835266 475.454754 
L 774.681788 472.601995 
L 777.528311 475.517382 
L 780.374833 472.534717 
L 783.221356 475.589725 
L 786.067878 472.456841 
L 788.9144 475.673666 
L 791.760923 472.366228 
L 794.607445 475.771647 
L 797.453968 472.260081 
L 800.30049 475.886883 
L 803.147013 472.134682 
L 805.993535 476.023697 
L 808.840058 471.984981 
L 811.68658 476.188027 
L 814.533103 471.803946 
L 817.379625 476.38826 
L 820.226147 471.581494 
L 823.07267 476.636625 
L 825.919192 471.302646 
L 828.765715 476.951675 
L 831.612237 470.944144 
L 834.45876 477.362966 
L 837.305282 470.467834 
L 838.728543 474.043475 
L 840.151805 477.920632 
L 841.575066 474.043475 
L 842.998327 469.806479 
L 844.421588 474.043475 
L 845.84485 478.717038 
L 847.268111 474.043475 
L 848.691372 468.829543 
L 850.114633 474.043475 
L 851.537894 479.943088 
L 852.961156 474.043475 
L 854.384417 467.245809 
L 855.807678 474.043475 
L 857.230939 482.067393 
L 858.654201 474.043475 
L 860.077462 464.246314 
L 861.500723 474.043475 
L 862.923984 486.629704 
L 864.347246 474.043475 
L 865.770507 456.433369 
L 867.193768 474.043475 
L 868.617029 503.381864 
L 870.04029 474.043475 
L 871.463552 386.04598 
L 872.886813 335.820803 
L 874.310074 386.04598 
L 875.733335 474.043475 
L 877.156597 503.381864 
L 878.579858 474.043475 
L 880.003119 456.433369 
L 881.42638 474.043475 
L 882.849641 486.629704 
L 884.272903 474.043475 
L 885.696164 464.246314 
L 887.119425 474.043475 
L 888.542686 482.067393 
L 889.965948 474.043475 
L 891.389209 467.245809 
L 892.81247 474.043475 
L 894.235731 479.943088 
L 895.658993 474.043475 
L 897.082254 468.829543 
L 898.505515 474.043475 
L 899.928776 478.717038 
L 901.352037 474.043475 
L 902.775299 469.806479 
L 904.19856 474.043475 
L 905.621821 477.920632 
L 908.468344 470.467834 
L 911.314866 477.362966 
L 914.161389 470.944144 
L 917.007911 476.951675 
L 919.854433 471.302646 
L 922.700956 476.636625 
L 925.547478 471.581494 
L 928.394001 476.38826 
L 931.240523 471.803946 
L 934.087046 476.188027 
L 936.933568 471.984981 
L 939.780091 476.023697 
L 942.626613 472.134682 
L 945.473136 475.886883 
L 948.319658 472.260081 
L 951.16618 475.771647 
L 954.012703 472.366228 
L 956.859225 475.673666 
L 959.705748 472.456841 
L 962.55227 475.589725 
L 965.398793 472.534717 
L 968.245315 475.517382 
L 971.091838 472.601995 
L 973.93836 475.454754 
L 976.784883 472.66034 
L 979.631405 475.400367 
L 982.477927 472.711061 
L 985.32445 475.353053 
L 988.170972 472.755199 
L 991.017495 475.311881 
L 993.864017 472.793592 
L 996.71054 475.276098 
L 999.557062 472.826917 
L 1002.403585 475.245094 
L 1005.250107 472.855724 
L 1008.09663 475.218372 
L 1010.943152 472.880462 
L 1013.789674 475.195528 
L 1016.636197 472.901495 
L 1019.482719 475.176232 
L 1022.329242 472.91912 
L 1025.175764 475.160218 
L 1028.022287 472.933576 
L 1030.868809 475.147273 
L 1033.715332 472.945053 
L 1036.561854 475.137228 
L 1039.408377 472.953696 
L 1042.254899 475.129959 
L 1045.101421 472.959613 
L 1047.947944 475.125375 
L 1050.794466 472.962878 
L 1053.640989 475.123421 
L 1053.640989 475.123421 
" style="fill:none;stroke:#0000ff;stroke-linecap:square;stroke-width:1.5;"/>
   </g>
   <g id="patch_20">
    <path d="M 672.562795 511.759917 
L 672.562795 327.44275 
" style="fill:none;stroke:#000000;stroke-linecap:square;stroke-linejoin:miter;stroke-width:0.8;"/>
   </g>
   <g id="patch_21">
    <path d="M 1071.78757 511.759917 
L 1071.78757 327.44275 
" style="fill:none;stroke:#000000;stroke-linecap:square;stroke-linejoin:miter;stroke-width:0.8;"/>
   </g>
   <g id="patch_22">
    <path d="M 672.562795 511.759917 
L 1071.78757 511.759917 
" style="fill:none;stroke:#000000;stroke-linecap:square;stroke-linejoin:miter;stroke-width:0.8;"/>
   </g>
   <g id="patch_23">
    <path d="M 672.562795 327.44275 
L 1071.78757 327.44275 
" style="fill:none;stroke:#000000;stroke-linecap:square;stroke-linejoin:miter;stroke-width:0.8;"/>
   </g>
   <g id="text_74">
    <!-- Fourier transform -->
    <g transform="translate(819.85612 321.44275)scale(0.12 -0.12)">
     <use xlink:href="#DejaVuSans-70"/>
     <use x="53.894531" xlink:href="#DejaVuSans-111"/>
     <use x="115.076172" xlink:href="#DejaVuSans-117"/>
     <use x="178.455078" xlink:href="#DejaVuSans-114"/>
     <use x="219.568359" xlink:href="#DejaVuSans-105"/>
     <use x="247.351562" xlink:href="#DejaVuSans-101"/>
     <use x="308.875" xlink:href="#DejaVuSans-114"/>
     <use x="349.988281" xlink:href="#DejaVuSans-32"/>
     <use x="381.775391" xlink:href="#DejaVuSans-116"/>
     <use x="420.984375" xlink:href="#DejaVuSans-114"/>
     <use x="462.097656" xlink:href="#DejaVuSans-97"/>
     <use x="523.376953" xlink:href="#DejaVuSans-110"/>
     <use x="586.755859" xlink:href="#DejaVuSans-115"/>
     <use x="638.855469" xlink:href="#DejaVuSans-102"/>
     <use x="674.060547" xlink:href="#DejaVuSans-111"/>
     <use x="735.242188" xlink:href="#DejaVuSans-114"/>
     <use x="774.605469" xlink:href="#DejaVuSans-109"/>
    </g>
   </g>
   <g id="legend_3">
    <g id="patch_24">
     <path d="M 979.809445 350.120875 
L 1064.78757 350.120875 
Q 1066.78757 350.120875 1066.78757 348.120875 
L 1066.78757 334.44275 
Q 1066.78757 332.44275 1064.78757 332.44275 
L 979.809445 332.44275 
Q 977.809445 332.44275 977.809445 334.44275 
L 977.809445 348.120875 
Q 977.809445 350.120875 979.809445 350.120875 
z
" style="fill:#ffffff;opacity:0.8;stroke:#cccccc;stroke-linejoin:miter;"/>
    </g>
    <g id="line2d_69">
     <path d="M 981.809445 340.541188 
L 1001.809445 340.541188 
" style="fill:none;stroke:#0000ff;stroke-linecap:square;stroke-width:1.5;"/>
    </g>
    <g id="line2d_70"/>
    <g id="text_75">
     <!-- 256 points -->
     <g transform="translate(1009.809445 344.041188)scale(0.1 -0.1)">
      <use xlink:href="#DejaVuSans-50"/>
      <use x="63.623047" xlink:href="#DejaVuSans-53"/>
      <use x="127.246094" xlink:href="#DejaVuSans-54"/>
      <use x="190.869141" xlink:href="#DejaVuSans-32"/>
      <use x="222.65625" xlink:href="#DejaVuSans-112"/>
      <use x="286.132812" xlink:href="#DejaVuSans-111"/>
      <use x="347.314453" xlink:href="#DejaVuSans-105"/>
      <use x="375.097656" xlink:href="#DejaVuSans-110"/>
      <use x="438.476562" xlink:href="#DejaVuSans-116"/>
      <use x="477.685547" xlink:href="#DejaVuSans-115"/>
     </g>
    </g>
   </g>
  </g>
 </g>
 <defs>
  <clipPath id="p31a6ea2354">
   <rect height="184.317167" width="399.224774" x="134.1375" y="45.304"/>
  </clipPath>
  <clipPath id="pd5bd12193a">
   <rect height="184.317167" width="399.224774" x="672.562795" y="45.304"/>
  </clipPath>
  <clipPath id="pd6a42bdfc0">
   <rect height="184.317167" width="399.224774" x="134.1375" y="327.44275"/>
  </clipPath>
  <clipPath id="p3e0b1a321b">
   <rect height="184.317167" width="399.224774" x="672.562795" y="327.44275"/>
  </clipPath>
 </defs>
</svg>
