<?xml version="1.0" encoding="utf-8" standalone="no"?>
<!DOCTYPE svg PUBLIC "-//W3C//DTD SVG 1.1//EN"
  "http://www.w3.org/Graphics/SVG/1.1/DTD/svg11.dtd">
<!-- Created with matplotlib (https://matplotlib.org/) -->
<svg height="582.48pt" version="1.1" viewBox="0 0 1103.76 582.48" width="1103.76pt" xmlns="http://www.w3.org/2000/svg" xmlns:xlink="http://www.w3.org/1999/xlink">
 <defs>
  <style type="text/css">
*{stroke-linecap:butt;stroke-linejoin:round;}
  </style>
 </defs>
 <g id="figure_1">
  <g id="patch_1">
   <path d="M 0 582.48 
L 1103.76 582.48 
L 1103.76 0 
L 0 0 
z
" style="fill:#ffffff;"/>
  </g>
  <g id="axes_1">
   <g id="patch_2">
    <path d="M 134.1375 511.759917 
L 542.610141 511.759917 
L 542.610141 45.304 
L 134.1375 45.304 
z
" style="fill:#ffffff;"/>
   </g>
   <g id="matplotlib.axis_1">
    <g id="xtick_1">
     <g id="line2d_1">
      <defs>
       <path d="M 0 0 
L 0 3.5 
" id="m46359d6576" style="stroke:#000000;stroke-width:0.8;"/>
      </defs>
      <g>
       <use style="stroke:#000000;stroke-width:0.8;" x="152.704438" xlink:href="#m46359d6576" y="511.759917"/>
      </g>
     </g>
     <g id="text_1">
      <!-- 0.0 -->
      <defs>
       <path d="M 31.78125 66.40625 
Q 24.171875 66.40625 20.328125 58.90625 
Q 16.5 51.421875 16.5 36.375 
Q 16.5 21.390625 20.328125 13.890625 
Q 24.171875 6.390625 31.78125 6.390625 
Q 39.453125 6.390625 43.28125 13.890625 
Q 47.125 21.390625 47.125 36.375 
Q 47.125 51.421875 43.28125 58.90625 
Q 39.453125 66.40625 31.78125 66.40625 
z
M 31.78125 74.21875 
Q 44.046875 74.21875 50.515625 64.515625 
Q 56.984375 54.828125 56.984375 36.375 
Q 56.984375 17.96875 50.515625 8.265625 
Q 44.046875 -1.421875 31.78125 -1.421875 
Q 19.53125 -1.421875 13.0625 8.265625 
Q 6.59375 17.96875 6.59375 36.375 
Q 6.59375 54.828125 13.0625 64.515625 
Q 19.53125 74.21875 31.78125 74.21875 
z
" id="DejaVuSans-48"/>
       <path d="M 10.6875 12.40625 
L 21 12.40625 
L 21 0 
L 10.6875 0 
z
" id="DejaVuSans-46"/>
      </defs>
      <g transform="translate(144.752876 526.358354)scale(0.1 -0.1)">
       <use xlink:href="#DejaVuSans-48"/>
       <use x="63.623047" xlink:href="#DejaVuSans-46"/>
       <use x="95.410156" xlink:href="#DejaVuSans-48"/>
      </g>
     </g>
    </g>
    <g id="xtick_2">
     <g id="line2d_2">
      <g>
       <use style="stroke:#000000;stroke-width:0.8;" x="226.972191" xlink:href="#m46359d6576" y="511.759917"/>
      </g>
     </g>
     <g id="text_2">
      <!-- 0.1 -->
      <defs>
       <path d="M 12.40625 8.296875 
L 28.515625 8.296875 
L 28.515625 63.921875 
L 10.984375 60.40625 
L 10.984375 69.390625 
L 28.421875 72.90625 
L 38.28125 72.90625 
L 38.28125 8.296875 
L 54.390625 8.296875 
L 54.390625 0 
L 12.40625 0 
z
" id="DejaVuSans-49"/>
      </defs>
      <g transform="translate(219.020629 526.358354)scale(0.1 -0.1)">
       <use xlink:href="#DejaVuSans-48"/>
       <use x="63.623047" xlink:href="#DejaVuSans-46"/>
       <use x="95.410156" xlink:href="#DejaVuSans-49"/>
      </g>
     </g>
    </g>
    <g id="xtick_3">
     <g id="line2d_3">
      <g>
       <use style="stroke:#000000;stroke-width:0.8;" x="301.239944" xlink:href="#m46359d6576" y="511.759917"/>
      </g>
     </g>
     <g id="text_3">
      <!-- 0.2 -->
      <defs>
       <path d="M 19.1875 8.296875 
L 53.609375 8.296875 
L 53.609375 0 
L 7.328125 0 
L 7.328125 8.296875 
Q 12.9375 14.109375 22.625 23.890625 
Q 32.328125 33.6875 34.8125 36.53125 
Q 39.546875 41.84375 41.421875 45.53125 
Q 43.3125 49.21875 43.3125 52.78125 
Q 43.3125 58.59375 39.234375 62.25 
Q 35.15625 65.921875 28.609375 65.921875 
Q 23.96875 65.921875 18.8125 64.3125 
Q 13.671875 62.703125 7.8125 59.421875 
L 7.8125 69.390625 
Q 13.765625 71.78125 18.9375 73 
Q 24.125 74.21875 28.421875 74.21875 
Q 39.75 74.21875 46.484375 68.546875 
Q 53.21875 62.890625 53.21875 53.421875 
Q 53.21875 48.921875 51.53125 44.890625 
Q 49.859375 40.875 45.40625 35.40625 
Q 44.1875 33.984375 37.640625 27.21875 
Q 31.109375 20.453125 19.1875 8.296875 
z
" id="DejaVuSans-50"/>
      </defs>
      <g transform="translate(293.288381 526.358354)scale(0.1 -0.1)">
       <use xlink:href="#DejaVuSans-48"/>
       <use x="63.623047" xlink:href="#DejaVuSans-46"/>
       <use x="95.410156" xlink:href="#DejaVuSans-50"/>
      </g>
     </g>
    </g>
    <g id="xtick_4">
     <g id="line2d_4">
      <g>
       <use style="stroke:#000000;stroke-width:0.8;" x="375.507697" xlink:href="#m46359d6576" y="511.759917"/>
      </g>
     </g>
     <g id="text_4">
      <!-- 0.3 -->
      <defs>
       <path d="M 40.578125 39.3125 
Q 47.65625 37.796875 51.625 33 
Q 55.609375 28.21875 55.609375 21.1875 
Q 55.609375 10.40625 48.1875 4.484375 
Q 40.765625 -1.421875 27.09375 -1.421875 
Q 22.515625 -1.421875 17.65625 -0.515625 
Q 12.796875 0.390625 7.625 2.203125 
L 7.625 11.71875 
Q 11.71875 9.328125 16.59375 8.109375 
Q 21.484375 6.890625 26.8125 6.890625 
Q 36.078125 6.890625 40.9375 10.546875 
Q 45.796875 14.203125 45.796875 21.1875 
Q 45.796875 27.640625 41.28125 31.265625 
Q 36.765625 34.90625 28.71875 34.90625 
L 20.21875 34.90625 
L 20.21875 43.015625 
L 29.109375 43.015625 
Q 36.375 43.015625 40.234375 45.921875 
Q 44.09375 48.828125 44.09375 54.296875 
Q 44.09375 59.90625 40.109375 62.90625 
Q 36.140625 65.921875 28.71875 65.921875 
Q 24.65625 65.921875 20.015625 65.03125 
Q 15.375 64.15625 9.8125 62.3125 
L 9.8125 71.09375 
Q 15.4375 72.65625 20.34375 73.4375 
Q 25.25 74.21875 29.59375 74.21875 
Q 40.828125 74.21875 47.359375 69.109375 
Q 53.90625 64.015625 53.90625 55.328125 
Q 53.90625 49.265625 50.4375 45.09375 
Q 46.96875 40.921875 40.578125 39.3125 
z
" id="DejaVuSans-51"/>
      </defs>
      <g transform="translate(367.556134 526.358354)scale(0.1 -0.1)">
       <use xlink:href="#DejaVuSans-48"/>
       <use x="63.623047" xlink:href="#DejaVuSans-46"/>
       <use x="95.410156" xlink:href="#DejaVuSans-51"/>
      </g>
     </g>
    </g>
    <g id="xtick_5">
     <g id="line2d_5">
      <g>
       <use style="stroke:#000000;stroke-width:0.8;" x="449.77545" xlink:href="#m46359d6576" y="511.759917"/>
      </g>
     </g>
     <g id="text_5">
      <!-- 0.4 -->
      <defs>
       <path d="M 37.796875 64.3125 
L 12.890625 25.390625 
L 37.796875 25.390625 
z
M 35.203125 72.90625 
L 47.609375 72.90625 
L 47.609375 25.390625 
L 58.015625 25.390625 
L 58.015625 17.1875 
L 47.609375 17.1875 
L 47.609375 0 
L 37.796875 0 
L 37.796875 17.1875 
L 4.890625 17.1875 
L 4.890625 26.703125 
z
" id="DejaVuSans-52"/>
      </defs>
      <g transform="translate(441.823887 526.358354)scale(0.1 -0.1)">
       <use xlink:href="#DejaVuSans-48"/>
       <use x="63.623047" xlink:href="#DejaVuSans-46"/>
       <use x="95.410156" xlink:href="#DejaVuSans-52"/>
      </g>
     </g>
    </g>
    <g id="xtick_6">
     <g id="line2d_6">
      <g>
       <use style="stroke:#000000;stroke-width:0.8;" x="524.043202" xlink:href="#m46359d6576" y="511.759917"/>
      </g>
     </g>
     <g id="text_6">
      <!-- 0.5 -->
      <defs>
       <path d="M 10.796875 72.90625 
L 49.515625 72.90625 
L 49.515625 64.59375 
L 19.828125 64.59375 
L 19.828125 46.734375 
Q 21.96875 47.46875 24.109375 47.828125 
Q 26.265625 48.1875 28.421875 48.1875 
Q 40.625 48.1875 47.75 41.5 
Q 54.890625 34.8125 54.890625 23.390625 
Q 54.890625 11.625 47.5625 5.09375 
Q 40.234375 -1.421875 26.90625 -1.421875 
Q 22.3125 -1.421875 17.546875 -0.640625 
Q 12.796875 0.140625 7.71875 1.703125 
L 7.71875 11.625 
Q 12.109375 9.234375 16.796875 8.0625 
Q 21.484375 6.890625 26.703125 6.890625 
Q 35.15625 6.890625 40.078125 11.328125 
Q 45.015625 15.765625 45.015625 23.390625 
Q 45.015625 31 40.078125 35.4375 
Q 35.15625 39.890625 26.703125 39.890625 
Q 22.75 39.890625 18.8125 39.015625 
Q 14.890625 38.140625 10.796875 36.28125 
z
" id="DejaVuSans-53"/>
      </defs>
      <g transform="translate(516.09164 526.358354)scale(0.1 -0.1)">
       <use xlink:href="#DejaVuSans-48"/>
       <use x="63.623047" xlink:href="#DejaVuSans-46"/>
       <use x="95.410156" xlink:href="#DejaVuSans-53"/>
      </g>
     </g>
    </g>
    <g id="text_7">
     <!-- x -->
     <defs>
      <path d="M 54.890625 54.6875 
L 35.109375 28.078125 
L 55.90625 0 
L 45.3125 0 
L 29.390625 21.484375 
L 13.484375 0 
L 2.875 0 
L 24.125 28.609375 
L 4.6875 54.6875 
L 15.28125 54.6875 
L 29.78125 35.203125 
L 44.28125 54.6875 
z
" id="DejaVuSans-120"/>
     </defs>
     <g transform="translate(335.414445 540.036479)scale(0.1 -0.1)">
      <use xlink:href="#DejaVuSans-120"/>
     </g>
    </g>
   </g>
   <g id="matplotlib.axis_2">
    <g id="ytick_1">
     <g id="line2d_7">
      <defs>
       <path d="M 0 0 
L -3.5 0 
" id="m66aa407214" style="stroke:#000000;stroke-width:0.8;"/>
      </defs>
      <g>
       <use style="stroke:#000000;stroke-width:0.8;" x="134.1375" xlink:href="#m66aa407214" y="502.522889"/>
      </g>
     </g>
     <g id="text_8">
      <!-- −0.4 -->
      <defs>
       <path d="M 10.59375 35.5 
L 73.1875 35.5 
L 73.1875 27.203125 
L 10.59375 27.203125 
z
" id="DejaVuSans-8722"/>
      </defs>
      <g transform="translate(102.854688 506.322108)scale(0.1 -0.1)">
       <use xlink:href="#DejaVuSans-8722"/>
       <use x="83.789062" xlink:href="#DejaVuSans-48"/>
       <use x="147.412109" xlink:href="#DejaVuSans-46"/>
       <use x="179.199219" xlink:href="#DejaVuSans-52"/>
      </g>
     </g>
    </g>
    <g id="ytick_2">
     <g id="line2d_8">
      <g>
       <use style="stroke:#000000;stroke-width:0.8;" x="134.1375" xlink:href="#m66aa407214" y="425.871126"/>
      </g>
     </g>
     <g id="text_9">
      <!-- −0.2 -->
      <g transform="translate(102.854688 429.670345)scale(0.1 -0.1)">
       <use xlink:href="#DejaVuSans-8722"/>
       <use x="83.789062" xlink:href="#DejaVuSans-48"/>
       <use x="147.412109" xlink:href="#DejaVuSans-46"/>
       <use x="179.199219" xlink:href="#DejaVuSans-50"/>
      </g>
     </g>
    </g>
    <g id="ytick_3">
     <g id="line2d_9">
      <g>
       <use style="stroke:#000000;stroke-width:0.8;" x="134.1375" xlink:href="#m66aa407214" y="349.219363"/>
      </g>
     </g>
     <g id="text_10">
      <!-- 0.0 -->
      <g transform="translate(111.234375 353.018582)scale(0.1 -0.1)">
       <use xlink:href="#DejaVuSans-48"/>
       <use x="63.623047" xlink:href="#DejaVuSans-46"/>
       <use x="95.410156" xlink:href="#DejaVuSans-48"/>
      </g>
     </g>
    </g>
    <g id="ytick_4">
     <g id="line2d_10">
      <g>
       <use style="stroke:#000000;stroke-width:0.8;" x="134.1375" xlink:href="#m66aa407214" y="272.5676"/>
      </g>
     </g>
     <g id="text_11">
      <!-- 0.2 -->
      <g transform="translate(111.234375 276.366819)scale(0.1 -0.1)">
       <use xlink:href="#DejaVuSans-48"/>
       <use x="63.623047" xlink:href="#DejaVuSans-46"/>
       <use x="95.410156" xlink:href="#DejaVuSans-50"/>
      </g>
     </g>
    </g>
    <g id="ytick_5">
     <g id="line2d_11">
      <g>
       <use style="stroke:#000000;stroke-width:0.8;" x="134.1375" xlink:href="#m66aa407214" y="195.915837"/>
      </g>
     </g>
     <g id="text_12">
      <!-- 0.4 -->
      <g transform="translate(111.234375 199.715055)scale(0.1 -0.1)">
       <use xlink:href="#DejaVuSans-48"/>
       <use x="63.623047" xlink:href="#DejaVuSans-46"/>
       <use x="95.410156" xlink:href="#DejaVuSans-52"/>
      </g>
     </g>
    </g>
    <g id="ytick_6">
     <g id="line2d_12">
      <g>
       <use style="stroke:#000000;stroke-width:0.8;" x="134.1375" xlink:href="#m66aa407214" y="119.264073"/>
      </g>
     </g>
     <g id="text_13">
      <!-- 0.6 -->
      <defs>
       <path d="M 33.015625 40.375 
Q 26.375 40.375 22.484375 35.828125 
Q 18.609375 31.296875 18.609375 23.390625 
Q 18.609375 15.53125 22.484375 10.953125 
Q 26.375 6.390625 33.015625 6.390625 
Q 39.65625 6.390625 43.53125 10.953125 
Q 47.40625 15.53125 47.40625 23.390625 
Q 47.40625 31.296875 43.53125 35.828125 
Q 39.65625 40.375 33.015625 40.375 
z
M 52.59375 71.296875 
L 52.59375 62.3125 
Q 48.875 64.0625 45.09375 64.984375 
Q 41.3125 65.921875 37.59375 65.921875 
Q 27.828125 65.921875 22.671875 59.328125 
Q 17.53125 52.734375 16.796875 39.40625 
Q 19.671875 43.65625 24.015625 45.921875 
Q 28.375 48.1875 33.59375 48.1875 
Q 44.578125 48.1875 50.953125 41.515625 
Q 57.328125 34.859375 57.328125 23.390625 
Q 57.328125 12.15625 50.6875 5.359375 
Q 44.046875 -1.421875 33.015625 -1.421875 
Q 20.359375 -1.421875 13.671875 8.265625 
Q 6.984375 17.96875 6.984375 36.375 
Q 6.984375 53.65625 15.1875 63.9375 
Q 23.390625 74.21875 37.203125 74.21875 
Q 40.921875 74.21875 44.703125 73.484375 
Q 48.484375 72.75 52.59375 71.296875 
z
" id="DejaVuSans-54"/>
      </defs>
      <g transform="translate(111.234375 123.063292)scale(0.1 -0.1)">
       <use xlink:href="#DejaVuSans-48"/>
       <use x="63.623047" xlink:href="#DejaVuSans-46"/>
       <use x="95.410156" xlink:href="#DejaVuSans-54"/>
      </g>
     </g>
    </g>
    <g id="text_14">
     <!-- y(x) -->
     <defs>
      <path d="M 32.171875 -5.078125 
Q 28.375 -14.84375 24.75 -17.8125 
Q 21.140625 -20.796875 15.09375 -20.796875 
L 7.90625 -20.796875 
L 7.90625 -13.28125 
L 13.1875 -13.28125 
Q 16.890625 -13.28125 18.9375 -11.515625 
Q 21 -9.765625 23.484375 -3.21875 
L 25.09375 0.875 
L 2.984375 54.6875 
L 12.5 54.6875 
L 29.59375 11.921875 
L 46.6875 54.6875 
L 56.203125 54.6875 
z
" id="DejaVuSans-121"/>
      <path d="M 31 75.875 
Q 24.46875 64.65625 21.28125 53.65625 
Q 18.109375 42.671875 18.109375 31.390625 
Q 18.109375 20.125 21.3125 9.0625 
Q 24.515625 -2 31 -13.1875 
L 23.1875 -13.1875 
Q 15.875 -1.703125 12.234375 9.375 
Q 8.59375 20.453125 8.59375 31.390625 
Q 8.59375 42.28125 12.203125 53.3125 
Q 15.828125 64.359375 23.1875 75.875 
z
" id="DejaVuSans-40"/>
      <path d="M 8.015625 75.875 
L 15.828125 75.875 
Q 23.140625 64.359375 26.78125 53.3125 
Q 30.421875 42.28125 30.421875 31.390625 
Q 30.421875 20.453125 26.78125 9.375 
Q 23.140625 -1.703125 15.828125 -13.1875 
L 8.015625 -13.1875 
Q 14.5 -2 17.703125 9.0625 
Q 20.90625 20.125 20.90625 31.390625 
Q 20.90625 42.671875 17.703125 53.65625 
Q 14.5 64.65625 8.015625 75.875 
z
" id="DejaVuSans-41"/>
     </defs>
     <g transform="translate(96.775 288.352271)rotate(-90)scale(0.1 -0.1)">
      <use xlink:href="#DejaVuSans-121"/>
      <use x="59.179688" xlink:href="#DejaVuSans-40"/>
      <use x="98.193359" xlink:href="#DejaVuSans-120"/>
      <use x="157.373047" xlink:href="#DejaVuSans-41"/>
     </g>
    </g>
   </g>
   <g id="line2d_13">
    <path clip-path="url(#p97d3eb74ad)" d="M 152.704438 221.466424 
L 157.401543 161.584905 
L 163.536556 123.409782 
L 169.650334 106.700592 
L 177.441733 98.153253 
L 186.754699 94.764744 
L 198.196462 93.535068 
L 212.65302 92.953931 
L 231.72602 92.330682 
L 257.812073 91.290879 
L 286.68897 89.848734 
L 310.825751 88.361208 
L 334.962531 86.656074 
L 360.439588 84.643495 
L 386.253694 82.38095 
L 410.914601 79.991933 
L 434.333555 77.518115 
L 457.879241 74.861805 
L 482.828577 71.879601 
L 508.870263 68.586441 
L 524.043202 66.506542 
" style="fill:none;stroke:#bf00bf;stroke-linecap:square;stroke-width:1.5;"/>
    <defs>
     <path d="M 0 1.5 
C 0.397805 1.5 0.77937 1.341951 1.06066 1.06066 
C 1.341951 0.77937 1.5 0.397805 1.5 0 
C 1.5 -0.397805 1.341951 -0.77937 1.06066 -1.06066 
C 0.77937 -1.341951 0.397805 -1.5 0 -1.5 
C -0.397805 -1.5 -0.77937 -1.341951 -1.06066 -1.06066 
C -1.341951 -0.77937 -1.5 -0.397805 -1.5 0 
C -1.5 0.397805 -1.341951 0.77937 -1.06066 1.06066 
C -0.77937 1.341951 -0.397805 1.5 0 1.5 
z
" id="m23daaba22f" style="stroke:#bf00bf;"/>
    </defs>
    <g clip-path="url(#p97d3eb74ad)">
     <use style="fill:#bf00bf;stroke:#bf00bf;" x="152.704438" xlink:href="#m23daaba22f" y="221.466424"/>
     <use style="fill:#bf00bf;stroke:#bf00bf;" x="157.401543" xlink:href="#m23daaba22f" y="161.584905"/>
     <use style="fill:#bf00bf;stroke:#bf00bf;" x="163.536556" xlink:href="#m23daaba22f" y="123.409782"/>
     <use style="fill:#bf00bf;stroke:#bf00bf;" x="169.650334" xlink:href="#m23daaba22f" y="106.700592"/>
     <use style="fill:#bf00bf;stroke:#bf00bf;" x="177.441733" xlink:href="#m23daaba22f" y="98.153253"/>
     <use style="fill:#bf00bf;stroke:#bf00bf;" x="186.754699" xlink:href="#m23daaba22f" y="94.764744"/>
     <use style="fill:#bf00bf;stroke:#bf00bf;" x="198.196462" xlink:href="#m23daaba22f" y="93.535068"/>
     <use style="fill:#bf00bf;stroke:#bf00bf;" x="212.65302" xlink:href="#m23daaba22f" y="92.953931"/>
     <use style="fill:#bf00bf;stroke:#bf00bf;" x="231.72602" xlink:href="#m23daaba22f" y="92.330682"/>
     <use style="fill:#bf00bf;stroke:#bf00bf;" x="257.812073" xlink:href="#m23daaba22f" y="91.290879"/>
     <use style="fill:#bf00bf;stroke:#bf00bf;" x="286.68897" xlink:href="#m23daaba22f" y="89.848734"/>
     <use style="fill:#bf00bf;stroke:#bf00bf;" x="310.825751" xlink:href="#m23daaba22f" y="88.361208"/>
     <use style="fill:#bf00bf;stroke:#bf00bf;" x="334.962531" xlink:href="#m23daaba22f" y="86.656074"/>
     <use style="fill:#bf00bf;stroke:#bf00bf;" x="360.439588" xlink:href="#m23daaba22f" y="84.643495"/>
     <use style="fill:#bf00bf;stroke:#bf00bf;" x="386.253694" xlink:href="#m23daaba22f" y="82.38095"/>
     <use style="fill:#bf00bf;stroke:#bf00bf;" x="410.914601" xlink:href="#m23daaba22f" y="79.991933"/>
     <use style="fill:#bf00bf;stroke:#bf00bf;" x="434.333555" xlink:href="#m23daaba22f" y="77.518115"/>
     <use style="fill:#bf00bf;stroke:#bf00bf;" x="457.879241" xlink:href="#m23daaba22f" y="74.861805"/>
     <use style="fill:#bf00bf;stroke:#bf00bf;" x="482.828577" xlink:href="#m23daaba22f" y="71.879601"/>
     <use style="fill:#bf00bf;stroke:#bf00bf;" x="508.870263" xlink:href="#m23daaba22f" y="68.586441"/>
     <use style="fill:#bf00bf;stroke:#bf00bf;" x="524.043202" xlink:href="#m23daaba22f" y="66.506542"/>
    </g>
   </g>
   <g id="line2d_14">
    <path clip-path="url(#p97d3eb74ad)" d="M 152.704438 221.466424 
L 157.401543 341.221813 
L 163.536556 417.539141 
L 169.650334 450.899076 
L 177.441733 467.882507 
L 186.754699 474.47306 
L 198.196462 476.62459 
L 212.65302 477.27575 
L 231.72602 477.643382 
L 257.812073 478.154131 
L 286.68897 478.823613 
L 310.825751 479.575411 
L 334.962531 480.435216 
L 360.439588 481.424877 
L 386.253694 482.526567 
L 410.914601 483.718166 
L 434.333555 484.983497 
L 457.879241 486.330938 
L 482.828577 487.815222 
L 508.870263 489.429596 
L 524.043202 490.557375 
" style="fill:none;stroke:#00bfbf;stroke-linecap:square;stroke-width:1.5;"/>
    <defs>
     <path d="M 0 1.5 
C 0.397805 1.5 0.77937 1.341951 1.06066 1.06066 
C 1.341951 0.77937 1.5 0.397805 1.5 0 
C 1.5 -0.397805 1.341951 -0.77937 1.06066 -1.06066 
C 0.77937 -1.341951 0.397805 -1.5 0 -1.5 
C -0.397805 -1.5 -0.77937 -1.341951 -1.06066 -1.06066 
C -1.341951 -0.77937 -1.5 -0.397805 -1.5 0 
C -1.5 0.397805 -1.341951 0.77937 -1.06066 1.06066 
C -0.77937 1.341951 -0.397805 1.5 0 1.5 
z
" id="mc173262336" style="stroke:#00bfbf;"/>
    </defs>
    <g clip-path="url(#p97d3eb74ad)">
     <use style="fill:#00bfbf;stroke:#00bfbf;" x="152.704438" xlink:href="#mc173262336" y="221.466424"/>
     <use style="fill:#00bfbf;stroke:#00bfbf;" x="157.401543" xlink:href="#mc173262336" y="341.221813"/>
     <use style="fill:#00bfbf;stroke:#00bfbf;" x="163.536556" xlink:href="#mc173262336" y="417.539141"/>
     <use style="fill:#00bfbf;stroke:#00bfbf;" x="169.650334" xlink:href="#mc173262336" y="450.899076"/>
     <use style="fill:#00bfbf;stroke:#00bfbf;" x="177.441733" xlink:href="#mc173262336" y="467.882507"/>
     <use style="fill:#00bfbf;stroke:#00bfbf;" x="186.754699" xlink:href="#mc173262336" y="474.47306"/>
     <use style="fill:#00bfbf;stroke:#00bfbf;" x="198.196462" xlink:href="#mc173262336" y="476.62459"/>
     <use style="fill:#00bfbf;stroke:#00bfbf;" x="212.65302" xlink:href="#mc173262336" y="477.27575"/>
     <use style="fill:#00bfbf;stroke:#00bfbf;" x="231.72602" xlink:href="#mc173262336" y="477.643382"/>
     <use style="fill:#00bfbf;stroke:#00bfbf;" x="257.812073" xlink:href="#mc173262336" y="478.154131"/>
     <use style="fill:#00bfbf;stroke:#00bfbf;" x="286.68897" xlink:href="#mc173262336" y="478.823613"/>
     <use style="fill:#00bfbf;stroke:#00bfbf;" x="310.825751" xlink:href="#mc173262336" y="479.575411"/>
     <use style="fill:#00bfbf;stroke:#00bfbf;" x="334.962531" xlink:href="#mc173262336" y="480.435216"/>
     <use style="fill:#00bfbf;stroke:#00bfbf;" x="360.439588" xlink:href="#mc173262336" y="481.424877"/>
     <use style="fill:#00bfbf;stroke:#00bfbf;" x="386.253694" xlink:href="#mc173262336" y="482.526567"/>
     <use style="fill:#00bfbf;stroke:#00bfbf;" x="410.914601" xlink:href="#mc173262336" y="483.718166"/>
     <use style="fill:#00bfbf;stroke:#00bfbf;" x="434.333555" xlink:href="#mc173262336" y="484.983497"/>
     <use style="fill:#00bfbf;stroke:#00bfbf;" x="457.879241" xlink:href="#mc173262336" y="486.330938"/>
     <use style="fill:#00bfbf;stroke:#00bfbf;" x="482.828577" xlink:href="#mc173262336" y="487.815222"/>
     <use style="fill:#00bfbf;stroke:#00bfbf;" x="508.870263" xlink:href="#mc173262336" y="489.429596"/>
     <use style="fill:#00bfbf;stroke:#00bfbf;" x="524.043202" xlink:href="#mc173262336" y="490.557375"/>
    </g>
   </g>
   <g id="patch_3">
    <path d="M 134.1375 511.759917 
L 134.1375 45.304 
" style="fill:none;stroke:#000000;stroke-linecap:square;stroke-linejoin:miter;stroke-width:0.8;"/>
   </g>
   <g id="patch_4">
    <path d="M 542.610141 511.759917 
L 542.610141 45.304 
" style="fill:none;stroke:#000000;stroke-linecap:square;stroke-linejoin:miter;stroke-width:0.8;"/>
   </g>
   <g id="patch_5">
    <path d="M 134.1375 511.759917 
L 542.610141 511.759917 
" style="fill:none;stroke:#000000;stroke-linecap:square;stroke-linejoin:miter;stroke-width:0.8;"/>
   </g>
   <g id="patch_6">
    <path d="M 134.1375 45.304 
L 542.610141 45.304 
" style="fill:none;stroke:#000000;stroke-linecap:square;stroke-linejoin:miter;stroke-width:0.8;"/>
   </g>
   <g id="text_15">
    <!-- Solutions -->
    <defs>
     <path d="M 53.515625 70.515625 
L 53.515625 60.890625 
Q 47.90625 63.578125 42.921875 64.890625 
Q 37.9375 66.21875 33.296875 66.21875 
Q 25.25 66.21875 20.875 63.09375 
Q 16.5 59.96875 16.5 54.203125 
Q 16.5 49.359375 19.40625 46.890625 
Q 22.3125 44.4375 30.421875 42.921875 
L 36.375 41.703125 
Q 47.40625 39.59375 52.65625 34.296875 
Q 57.90625 29 57.90625 20.125 
Q 57.90625 9.515625 50.796875 4.046875 
Q 43.703125 -1.421875 29.984375 -1.421875 
Q 24.8125 -1.421875 18.96875 -0.25 
Q 13.140625 0.921875 6.890625 3.21875 
L 6.890625 13.375 
Q 12.890625 10.015625 18.65625 8.296875 
Q 24.421875 6.59375 29.984375 6.59375 
Q 38.421875 6.59375 43.015625 9.90625 
Q 47.609375 13.234375 47.609375 19.390625 
Q 47.609375 24.75 44.3125 27.78125 
Q 41.015625 30.8125 33.5 32.328125 
L 27.484375 33.5 
Q 16.453125 35.6875 11.515625 40.375 
Q 6.59375 45.0625 6.59375 53.421875 
Q 6.59375 63.09375 13.40625 68.65625 
Q 20.21875 74.21875 32.171875 74.21875 
Q 37.3125 74.21875 42.625 73.28125 
Q 47.953125 72.359375 53.515625 70.515625 
z
" id="DejaVuSans-83"/>
     <path d="M 30.609375 48.390625 
Q 23.390625 48.390625 19.1875 42.75 
Q 14.984375 37.109375 14.984375 27.296875 
Q 14.984375 17.484375 19.15625 11.84375 
Q 23.34375 6.203125 30.609375 6.203125 
Q 37.796875 6.203125 41.984375 11.859375 
Q 46.1875 17.53125 46.1875 27.296875 
Q 46.1875 37.015625 41.984375 42.703125 
Q 37.796875 48.390625 30.609375 48.390625 
z
M 30.609375 56 
Q 42.328125 56 49.015625 48.375 
Q 55.71875 40.765625 55.71875 27.296875 
Q 55.71875 13.875 49.015625 6.21875 
Q 42.328125 -1.421875 30.609375 -1.421875 
Q 18.84375 -1.421875 12.171875 6.21875 
Q 5.515625 13.875 5.515625 27.296875 
Q 5.515625 40.765625 12.171875 48.375 
Q 18.84375 56 30.609375 56 
z
" id="DejaVuSans-111"/>
     <path d="M 9.421875 75.984375 
L 18.40625 75.984375 
L 18.40625 0 
L 9.421875 0 
z
" id="DejaVuSans-108"/>
     <path d="M 8.5 21.578125 
L 8.5 54.6875 
L 17.484375 54.6875 
L 17.484375 21.921875 
Q 17.484375 14.15625 20.5 10.265625 
Q 23.53125 6.390625 29.59375 6.390625 
Q 36.859375 6.390625 41.078125 11.03125 
Q 45.3125 15.671875 45.3125 23.6875 
L 45.3125 54.6875 
L 54.296875 54.6875 
L 54.296875 0 
L 45.3125 0 
L 45.3125 8.40625 
Q 42.046875 3.421875 37.71875 1 
Q 33.40625 -1.421875 27.6875 -1.421875 
Q 18.265625 -1.421875 13.375 4.4375 
Q 8.5 10.296875 8.5 21.578125 
z
M 31.109375 56 
z
" id="DejaVuSans-117"/>
     <path d="M 18.3125 70.21875 
L 18.3125 54.6875 
L 36.8125 54.6875 
L 36.8125 47.703125 
L 18.3125 47.703125 
L 18.3125 18.015625 
Q 18.3125 11.328125 20.140625 9.421875 
Q 21.96875 7.515625 27.59375 7.515625 
L 36.8125 7.515625 
L 36.8125 0 
L 27.59375 0 
Q 17.1875 0 13.234375 3.875 
Q 9.28125 7.765625 9.28125 18.015625 
L 9.28125 47.703125 
L 2.6875 47.703125 
L 2.6875 54.6875 
L 9.28125 54.6875 
L 9.28125 70.21875 
z
" id="DejaVuSans-116"/>
     <path d="M 9.421875 54.6875 
L 18.40625 54.6875 
L 18.40625 0 
L 9.421875 0 
z
M 9.421875 75.984375 
L 18.40625 75.984375 
L 18.40625 64.59375 
L 9.421875 64.59375 
z
" id="DejaVuSans-105"/>
     <path d="M 54.890625 33.015625 
L 54.890625 0 
L 45.90625 0 
L 45.90625 32.71875 
Q 45.90625 40.484375 42.875 44.328125 
Q 39.84375 48.1875 33.796875 48.1875 
Q 26.515625 48.1875 22.3125 43.546875 
Q 18.109375 38.921875 18.109375 30.90625 
L 18.109375 0 
L 9.078125 0 
L 9.078125 54.6875 
L 18.109375 54.6875 
L 18.109375 46.1875 
Q 21.34375 51.125 25.703125 53.5625 
Q 30.078125 56 35.796875 56 
Q 45.21875 56 50.046875 50.171875 
Q 54.890625 44.34375 54.890625 33.015625 
z
" id="DejaVuSans-110"/>
     <path d="M 44.28125 53.078125 
L 44.28125 44.578125 
Q 40.484375 46.53125 36.375 47.5 
Q 32.28125 48.484375 27.875 48.484375 
Q 21.1875 48.484375 17.84375 46.4375 
Q 14.5 44.390625 14.5 40.28125 
Q 14.5 37.15625 16.890625 35.375 
Q 19.28125 33.59375 26.515625 31.984375 
L 29.59375 31.296875 
Q 39.15625 29.25 43.1875 25.515625 
Q 47.21875 21.78125 47.21875 15.09375 
Q 47.21875 7.46875 41.1875 3.015625 
Q 35.15625 -1.421875 24.609375 -1.421875 
Q 20.21875 -1.421875 15.453125 -0.5625 
Q 10.6875 0.296875 5.421875 2 
L 5.421875 11.28125 
Q 10.40625 8.6875 15.234375 7.390625 
Q 20.0625 6.109375 24.8125 6.109375 
Q 31.15625 6.109375 34.5625 8.28125 
Q 37.984375 10.453125 37.984375 14.40625 
Q 37.984375 18.0625 35.515625 20.015625 
Q 33.0625 21.96875 24.703125 23.78125 
L 21.578125 24.515625 
Q 13.234375 26.265625 9.515625 29.90625 
Q 5.8125 33.546875 5.8125 39.890625 
Q 5.8125 47.609375 11.28125 51.796875 
Q 16.75 56 26.8125 56 
Q 31.78125 56 36.171875 55.265625 
Q 40.578125 54.546875 44.28125 53.078125 
z
" id="DejaVuSans-115"/>
    </defs>
    <g transform="translate(310.805695 39.304)scale(0.12 -0.12)">
     <use xlink:href="#DejaVuSans-83"/>
     <use x="63.476562" xlink:href="#DejaVuSans-111"/>
     <use x="124.658203" xlink:href="#DejaVuSans-108"/>
     <use x="152.441406" xlink:href="#DejaVuSans-117"/>
     <use x="215.820312" xlink:href="#DejaVuSans-116"/>
     <use x="255.029297" xlink:href="#DejaVuSans-105"/>
     <use x="282.8125" xlink:href="#DejaVuSans-111"/>
     <use x="343.994141" xlink:href="#DejaVuSans-110"/>
     <use x="407.373047" xlink:href="#DejaVuSans-115"/>
    </g>
   </g>
   <g id="legend_1">
    <g id="patch_7">
     <path d="M 141.1375 82.66025 
L 185.41875 82.66025 
Q 187.41875 82.66025 187.41875 80.66025 
L 187.41875 52.304 
Q 187.41875 50.304 185.41875 50.304 
L 141.1375 50.304 
Q 139.1375 50.304 139.1375 52.304 
L 139.1375 80.66025 
Q 139.1375 82.66025 141.1375 82.66025 
z
" style="fill:#ffffff;opacity:0.8;stroke:#cccccc;stroke-linejoin:miter;"/>
    </g>
    <g id="line2d_15">
     <path d="M 143.1375 58.402438 
L 163.1375 58.402438 
" style="fill:none;stroke:#bf00bf;stroke-linecap:square;stroke-width:1.5;"/>
    </g>
    <g id="line2d_16">
     <g>
      <use style="fill:#bf00bf;stroke:#bf00bf;" x="153.1375" xlink:href="#m23daaba22f" y="58.402438"/>
     </g>
    </g>
    <g id="text_16">
     <!-- y1 -->
     <g transform="translate(171.1375 61.902438)scale(0.1 -0.1)">
      <use xlink:href="#DejaVuSans-121"/>
      <use x="59.179688" xlink:href="#DejaVuSans-49"/>
     </g>
    </g>
    <g id="line2d_17">
     <path d="M 143.1375 73.080563 
L 163.1375 73.080563 
" style="fill:none;stroke:#00bfbf;stroke-linecap:square;stroke-width:1.5;"/>
    </g>
    <g id="line2d_18">
     <g>
      <use style="fill:#00bfbf;stroke:#00bfbf;" x="153.1375" xlink:href="#mc173262336" y="73.080563"/>
     </g>
    </g>
    <g id="text_17">
     <!-- y2 -->
     <g transform="translate(171.1375 76.580563)scale(0.1 -0.1)">
      <use xlink:href="#DejaVuSans-121"/>
      <use x="59.179688" xlink:href="#DejaVuSans-50"/>
     </g>
    </g>
   </g>
  </g>
  <g id="axes_2">
   <g id="patch_8">
    <path d="M 669.417984 511.759917 
L 1077.890625 511.759917 
L 1077.890625 45.304 
L 669.417984 45.304 
z
" style="fill:#ffffff;"/>
   </g>
   <g id="matplotlib.axis_3">
    <g id="xtick_7">
     <g id="line2d_19">
      <g>
       <use style="stroke:#000000;stroke-width:0.8;" x="687.984923" xlink:href="#m46359d6576" y="511.759917"/>
      </g>
     </g>
     <g id="text_18">
      <!-- 0.0 -->
      <g transform="translate(680.03336 526.358354)scale(0.1 -0.1)">
       <use xlink:href="#DejaVuSans-48"/>
       <use x="63.623047" xlink:href="#DejaVuSans-46"/>
       <use x="95.410156" xlink:href="#DejaVuSans-48"/>
      </g>
     </g>
    </g>
    <g id="xtick_8">
     <g id="line2d_20">
      <g>
       <use style="stroke:#000000;stroke-width:0.8;" x="762.252675" xlink:href="#m46359d6576" y="511.759917"/>
      </g>
     </g>
     <g id="text_19">
      <!-- 0.1 -->
      <g transform="translate(754.301113 526.358354)scale(0.1 -0.1)">
       <use xlink:href="#DejaVuSans-48"/>
       <use x="63.623047" xlink:href="#DejaVuSans-46"/>
       <use x="95.410156" xlink:href="#DejaVuSans-49"/>
      </g>
     </g>
    </g>
    <g id="xtick_9">
     <g id="line2d_21">
      <g>
       <use style="stroke:#000000;stroke-width:0.8;" x="836.520428" xlink:href="#m46359d6576" y="511.759917"/>
      </g>
     </g>
     <g id="text_20">
      <!-- 0.2 -->
      <g transform="translate(828.568866 526.358354)scale(0.1 -0.1)">
       <use xlink:href="#DejaVuSans-48"/>
       <use x="63.623047" xlink:href="#DejaVuSans-46"/>
       <use x="95.410156" xlink:href="#DejaVuSans-50"/>
      </g>
     </g>
    </g>
    <g id="xtick_10">
     <g id="line2d_22">
      <g>
       <use style="stroke:#000000;stroke-width:0.8;" x="910.788181" xlink:href="#m46359d6576" y="511.759917"/>
      </g>
     </g>
     <g id="text_21">
      <!-- 0.3 -->
      <g transform="translate(902.836619 526.358354)scale(0.1 -0.1)">
       <use xlink:href="#DejaVuSans-48"/>
       <use x="63.623047" xlink:href="#DejaVuSans-46"/>
       <use x="95.410156" xlink:href="#DejaVuSans-51"/>
      </g>
     </g>
    </g>
    <g id="xtick_11">
     <g id="line2d_23">
      <g>
       <use style="stroke:#000000;stroke-width:0.8;" x="985.055934" xlink:href="#m46359d6576" y="511.759917"/>
      </g>
     </g>
     <g id="text_22">
      <!-- 0.4 -->
      <g transform="translate(977.104371 526.358354)scale(0.1 -0.1)">
       <use xlink:href="#DejaVuSans-48"/>
       <use x="63.623047" xlink:href="#DejaVuSans-46"/>
       <use x="95.410156" xlink:href="#DejaVuSans-52"/>
      </g>
     </g>
    </g>
    <g id="xtick_12">
     <g id="line2d_24">
      <g>
       <use style="stroke:#000000;stroke-width:0.8;" x="1059.323687" xlink:href="#m46359d6576" y="511.759917"/>
      </g>
     </g>
     <g id="text_23">
      <!-- 0.5 -->
      <g transform="translate(1051.372124 526.358354)scale(0.1 -0.1)">
       <use xlink:href="#DejaVuSans-48"/>
       <use x="63.623047" xlink:href="#DejaVuSans-46"/>
       <use x="95.410156" xlink:href="#DejaVuSans-53"/>
      </g>
     </g>
    </g>
    <g id="text_24">
     <!-- x -->
     <g transform="translate(870.69493 540.036479)scale(0.1 -0.1)">
      <use xlink:href="#DejaVuSans-120"/>
     </g>
    </g>
   </g>
   <g id="matplotlib.axis_4">
    <g id="ytick_7">
     <g id="line2d_25">
      <g>
       <use style="stroke:#000000;stroke-width:0.8;" x="669.417984" xlink:href="#m66aa407214" y="462.287319"/>
      </g>
     </g>
     <g id="text_25">
      <!-- −60 -->
      <g transform="translate(641.313297 466.086538)scale(0.1 -0.1)">
       <use xlink:href="#DejaVuSans-8722"/>
       <use x="83.789062" xlink:href="#DejaVuSans-54"/>
       <use x="147.412109" xlink:href="#DejaVuSans-48"/>
      </g>
     </g>
    </g>
    <g id="ytick_8">
     <g id="line2d_26">
      <g>
       <use style="stroke:#000000;stroke-width:0.8;" x="669.417984" xlink:href="#m66aa407214" y="377.477153"/>
      </g>
     </g>
     <g id="text_26">
      <!-- −40 -->
      <g transform="translate(641.313297 381.276372)scale(0.1 -0.1)">
       <use xlink:href="#DejaVuSans-8722"/>
       <use x="83.789062" xlink:href="#DejaVuSans-52"/>
       <use x="147.412109" xlink:href="#DejaVuSans-48"/>
      </g>
     </g>
    </g>
    <g id="ytick_9">
     <g id="line2d_27">
      <g>
       <use style="stroke:#000000;stroke-width:0.8;" x="669.417984" xlink:href="#m66aa407214" y="292.666986"/>
      </g>
     </g>
     <g id="text_27">
      <!-- −20 -->
      <g transform="translate(641.313297 296.466205)scale(0.1 -0.1)">
       <use xlink:href="#DejaVuSans-8722"/>
       <use x="83.789062" xlink:href="#DejaVuSans-50"/>
       <use x="147.412109" xlink:href="#DejaVuSans-48"/>
      </g>
     </g>
    </g>
    <g id="ytick_10">
     <g id="line2d_28">
      <g>
       <use style="stroke:#000000;stroke-width:0.8;" x="669.417984" xlink:href="#m66aa407214" y="207.856819"/>
      </g>
     </g>
     <g id="text_28">
      <!-- 0 -->
      <g transform="translate(656.055484 211.656038)scale(0.1 -0.1)">
       <use xlink:href="#DejaVuSans-48"/>
      </g>
     </g>
    </g>
    <g id="ytick_11">
     <g id="line2d_29">
      <g>
       <use style="stroke:#000000;stroke-width:0.8;" x="669.417984" xlink:href="#m66aa407214" y="123.046653"/>
      </g>
     </g>
     <g id="text_29">
      <!-- 20 -->
      <g transform="translate(649.692984 126.845872)scale(0.1 -0.1)">
       <use xlink:href="#DejaVuSans-50"/>
       <use x="63.623047" xlink:href="#DejaVuSans-48"/>
      </g>
     </g>
    </g>
    <g id="text_30">
     <!-- dy/dx -->
     <defs>
      <path d="M 45.40625 46.390625 
L 45.40625 75.984375 
L 54.390625 75.984375 
L 54.390625 0 
L 45.40625 0 
L 45.40625 8.203125 
Q 42.578125 3.328125 38.25 0.953125 
Q 33.9375 -1.421875 27.875 -1.421875 
Q 17.96875 -1.421875 11.734375 6.484375 
Q 5.515625 14.40625 5.515625 27.296875 
Q 5.515625 40.1875 11.734375 48.09375 
Q 17.96875 56 27.875 56 
Q 33.9375 56 38.25 53.625 
Q 42.578125 51.265625 45.40625 46.390625 
z
M 14.796875 27.296875 
Q 14.796875 17.390625 18.875 11.75 
Q 22.953125 6.109375 30.078125 6.109375 
Q 37.203125 6.109375 41.296875 11.75 
Q 45.40625 17.390625 45.40625 27.296875 
Q 45.40625 37.203125 41.296875 42.84375 
Q 37.203125 48.484375 30.078125 48.484375 
Q 22.953125 48.484375 18.875 42.84375 
Q 14.796875 37.203125 14.796875 27.296875 
z
" id="DejaVuSans-100"/>
      <path d="M 25.390625 72.90625 
L 33.6875 72.90625 
L 8.296875 -9.28125 
L 0 -9.28125 
z
" id="DejaVuSans-47"/>
     </defs>
     <g transform="translate(635.233609 292.483521)rotate(-90)scale(0.1 -0.1)">
      <use xlink:href="#DejaVuSans-100"/>
      <use x="63.476562" xlink:href="#DejaVuSans-121"/>
      <use x="122.65625" xlink:href="#DejaVuSans-47"/>
      <use x="156.347656" xlink:href="#DejaVuSans-100"/>
      <use x="219.824219" xlink:href="#DejaVuSans-120"/>
     </g>
    </g>
   </g>
   <g id="line2d_30">
    <path clip-path="url(#p76f770a598)" d="M 687.984923 66.506542 
L 692.682028 132.738064 
L 698.81704 174.928951 
L 704.930818 193.350626 
L 712.722218 202.696803 
L 722.035183 206.274351 
L 733.476947 207.366568 
L 747.933504 207.58129 
L 767.006505 207.556483 
L 793.092558 207.462008 
L 821.969454 207.330371 
L 846.106235 207.26082 
L 870.243016 207.193095 
L 895.720072 207.106241 
L 921.534178 207.011411 
L 946.195085 206.941847 
L 969.614039 206.900829 
L 993.159725 206.854676 
L 1018.109061 206.787724 
L 1044.150747 206.701514 
L 1059.323687 206.730908 
" style="fill:none;stroke:#bfbf00;stroke-linecap:square;stroke-width:1.5;"/>
   </g>
   <g id="line2d_31">
    <defs>
     <path d="M 0 1.5 
C 0.397805 1.5 0.77937 1.341951 1.06066 1.06066 
C 1.341951 0.77937 1.5 0.397805 1.5 0 
C 1.5 -0.397805 1.341951 -0.77937 1.06066 -1.06066 
C 0.77937 -1.341951 0.397805 -1.5 0 -1.5 
C -0.397805 -1.5 -0.77937 -1.341951 -1.06066 -1.06066 
C -1.341951 -0.77937 -1.5 -0.397805 -1.5 0 
C -1.5 0.397805 -1.341951 0.77937 -1.06066 1.06066 
C -0.77937 1.341951 -0.397805 1.5 0 1.5 
z
" id="m2af99a35f6" style="stroke:#0000ff;"/>
    </defs>
    <g clip-path="url(#p76f770a598)">
     <use style="fill:#0000ff;stroke:#0000ff;" x="692.682028" xlink:href="#m2af99a35f6" y="103.098487"/>
     <use style="fill:#0000ff;stroke:#0000ff;" x="698.81704" xlink:href="#m2af99a35f6" y="156.725024"/>
     <use style="fill:#0000ff;stroke:#0000ff;" x="704.930818" xlink:href="#m2af99a35f6" y="185.398781"/>
     <use style="fill:#0000ff;stroke:#0000ff;" x="712.722218" xlink:href="#m2af99a35f6" y="198.842322"/>
     <use style="fill:#0000ff;stroke:#0000ff;" x="722.035183" xlink:href="#m2af99a35f6" y="204.866988"/>
     <use style="fill:#0000ff;stroke:#0000ff;" x="733.476947" xlink:href="#m2af99a35f6" y="206.973692"/>
     <use style="fill:#0000ff;stroke:#0000ff;" x="747.933504" xlink:href="#m2af99a35f6" y="207.526496"/>
     <use style="fill:#0000ff;stroke:#0000ff;" x="767.006505" xlink:href="#m2af99a35f6" y="207.588304"/>
     <use style="fill:#0000ff;stroke:#0000ff;" x="793.092558" xlink:href="#m2af99a35f6" y="207.529276"/>
     <use style="fill:#0000ff;stroke:#0000ff;" x="821.969454" xlink:href="#m2af99a35f6" y="207.446441"/>
     <use style="fill:#0000ff;stroke:#0000ff;" x="846.106235" xlink:href="#m2af99a35f6" y="207.350399"/>
     <use style="fill:#0000ff;stroke:#0000ff;" x="870.243016" xlink:href="#m2af99a35f6" y="207.276315"/>
     <use style="fill:#0000ff;stroke:#0000ff;" x="895.720072" xlink:href="#m2af99a35f6" y="207.207692"/>
     <use style="fill:#0000ff;stroke:#0000ff;" x="921.534178" xlink:href="#m2af99a35f6" y="207.136598"/>
     <use style="fill:#0000ff;stroke:#0000ff;" x="946.195085" xlink:href="#m2af99a35f6" y="207.060777"/>
     <use style="fill:#0000ff;stroke:#0000ff;" x="969.614039" xlink:href="#m2af99a35f6" y="206.988806"/>
     <use style="fill:#0000ff;stroke:#0000ff;" x="993.159725" xlink:href="#m2af99a35f6" y="206.92979"/>
     <use style="fill:#0000ff;stroke:#0000ff;" x="1018.109061" xlink:href="#m2af99a35f6" y="206.874609"/>
     <use style="fill:#0000ff;stroke:#0000ff;" x="1044.150747" xlink:href="#m2af99a35f6" y="206.81769"/>
     <use style="fill:#0000ff;stroke:#0000ff;" x="1059.323687" xlink:href="#m2af99a35f6" y="206.730404"/>
    </g>
   </g>
   <g id="line2d_32">
    <path clip-path="url(#p76f770a598)" d="M 687.984923 490.557375 
L 692.682028 358.067596 
L 698.81704 273.651156 
L 704.930818 236.773544 
L 712.722218 218.037935 
L 722.035183 210.831728 
L 733.476947 208.585369 
L 747.933504 208.079037 
L 767.006505 208.029472 
L 793.092558 208.086836 
L 821.969454 208.209736 
L 846.106235 208.235622 
L 870.243016 208.261476 
L 895.720072 208.323301 
L 921.534178 208.403448 
L 946.195085 208.441448 
L 969.614039 208.43051 
L 993.159725 208.432248 
L 1018.109061 208.473268 
L 1044.150747 208.552006 
L 1059.323687 208.440132 
" style="fill:none;stroke:#008000;stroke-linecap:square;stroke-width:1.5;"/>
   </g>
   <g id="line2d_33">
    <defs>
     <path d="M 0 1.5 
C 0.397805 1.5 0.77937 1.341951 1.06066 1.06066 
C 1.341951 0.77937 1.5 0.397805 1.5 0 
C 1.5 -0.397805 1.341951 -0.77937 1.06066 -1.06066 
C 0.77937 -1.341951 0.397805 -1.5 0 -1.5 
C -0.397805 -1.5 -0.77937 -1.341951 -1.06066 -1.06066 
C -1.341951 -0.77937 -1.5 -0.397805 -1.5 0 
C -1.5 0.397805 -1.341951 0.77937 -1.06066 1.06066 
C -0.77937 1.341951 -0.397805 1.5 0 1.5 
z
" id="madce64b7ec" style="stroke:#ff0000;"/>
    </defs>
    <g clip-path="url(#p76f770a598)">
     <use style="fill:#ff0000;stroke:#ff0000;" x="692.682028" xlink:href="#madce64b7ec" y="417.360104"/>
     <use style="fill:#ff0000;stroke:#ff0000;" x="698.81704" xlink:href="#madce64b7ec" y="310.076319"/>
     <use style="fill:#ff0000;stroke:#ff0000;" x="704.930818" xlink:href="#madce64b7ec" y="252.694341"/>
     <use style="fill:#ff0000;stroke:#ff0000;" x="712.722218" xlink:href="#madce64b7ec" y="225.768487"/>
     <use style="fill:#ff0000;stroke:#ff0000;" x="722.035183" xlink:href="#madce64b7ec" y="213.671955"/>
     <use style="fill:#ff0000;stroke:#ff0000;" x="733.476947" xlink:href="#madce64b7ec" y="209.402005"/>
     <use style="fill:#ff0000;stroke:#ff0000;" x="747.933504" xlink:href="#madce64b7ec" y="208.226945"/>
     <use style="fill:#ff0000;stroke:#ff0000;" x="767.006505" xlink:href="#madce64b7ec" y="208.015207"/>
     <use style="fill:#ff0000;stroke:#ff0000;" x="793.092558" xlink:href="#madce64b7ec" y="208.017708"/>
     <use style="fill:#ff0000;stroke:#ff0000;" x="821.969454" xlink:href="#madce64b7ec" y="208.047328"/>
     <use style="fill:#ff0000;stroke:#ff0000;" x="846.106235" xlink:href="#madce64b7ec" y="208.112765"/>
     <use style="fill:#ff0000;stroke:#ff0000;" x="870.243016" xlink:href="#madce64b7ec" y="208.149536"/>
     <use style="fill:#ff0000;stroke:#ff0000;" x="895.720072" xlink:href="#madce64b7ec" y="208.17602"/>
     <use style="fill:#ff0000;stroke:#ff0000;" x="921.534178" xlink:href="#madce64b7ec" y="208.207514"/>
     <use style="fill:#ff0000;stroke:#ff0000;" x="946.195085" xlink:href="#madce64b7ec" y="208.253871"/>
     <use style="fill:#ff0000;stroke:#ff0000;" x="969.614039" xlink:href="#madce64b7ec" y="208.300799"/>
     <use style="fill:#ff0000;stroke:#ff0000;" x="993.159725" xlink:href="#madce64b7ec" y="208.327065"/>
     <use style="fill:#ff0000;stroke:#ff0000;" x="1018.109061" xlink:href="#madce64b7ec" y="208.345679"/>
     <use style="fill:#ff0000;stroke:#ff0000;" x="1044.150747" xlink:href="#madce64b7ec" y="208.366222"/>
     <use style="fill:#ff0000;stroke:#ff0000;" x="1059.323687" xlink:href="#madce64b7ec" y="208.467593"/>
    </g>
   </g>
   <g id="patch_9">
    <path d="M 669.417984 511.759917 
L 669.417984 45.304 
" style="fill:none;stroke:#000000;stroke-linecap:square;stroke-linejoin:miter;stroke-width:0.8;"/>
   </g>
   <g id="patch_10">
    <path d="M 1077.890625 511.759917 
L 1077.890625 45.304 
" style="fill:none;stroke:#000000;stroke-linecap:square;stroke-linejoin:miter;stroke-width:0.8;"/>
   </g>
   <g id="patch_11">
    <path d="M 669.417984 511.759917 
L 1077.890625 511.759917 
" style="fill:none;stroke:#000000;stroke-linecap:square;stroke-linejoin:miter;stroke-width:0.8;"/>
   </g>
   <g id="patch_12">
    <path d="M 669.417984 45.304 
L 1077.890625 45.304 
" style="fill:none;stroke:#000000;stroke-linecap:square;stroke-linejoin:miter;stroke-width:0.8;"/>
   </g>
   <g id="text_31">
    <!-- Differentiation -->
    <defs>
     <path d="M 19.671875 64.796875 
L 19.671875 8.109375 
L 31.59375 8.109375 
Q 46.6875 8.109375 53.6875 14.9375 
Q 60.6875 21.78125 60.6875 36.53125 
Q 60.6875 51.171875 53.6875 57.984375 
Q 46.6875 64.796875 31.59375 64.796875 
z
M 9.8125 72.90625 
L 30.078125 72.90625 
Q 51.265625 72.90625 61.171875 64.09375 
Q 71.09375 55.28125 71.09375 36.53125 
Q 71.09375 17.671875 61.125 8.828125 
Q 51.171875 0 30.078125 0 
L 9.8125 0 
z
" id="DejaVuSans-68"/>
     <path d="M 37.109375 75.984375 
L 37.109375 68.5 
L 28.515625 68.5 
Q 23.6875 68.5 21.796875 66.546875 
Q 19.921875 64.59375 19.921875 59.515625 
L 19.921875 54.6875 
L 34.71875 54.6875 
L 34.71875 47.703125 
L 19.921875 47.703125 
L 19.921875 0 
L 10.890625 0 
L 10.890625 47.703125 
L 2.296875 47.703125 
L 2.296875 54.6875 
L 10.890625 54.6875 
L 10.890625 58.5 
Q 10.890625 67.625 15.140625 71.796875 
Q 19.390625 75.984375 28.609375 75.984375 
z
" id="DejaVuSans-102"/>
     <path d="M 56.203125 29.59375 
L 56.203125 25.203125 
L 14.890625 25.203125 
Q 15.484375 15.921875 20.484375 11.0625 
Q 25.484375 6.203125 34.421875 6.203125 
Q 39.59375 6.203125 44.453125 7.46875 
Q 49.3125 8.734375 54.109375 11.28125 
L 54.109375 2.78125 
Q 49.265625 0.734375 44.1875 -0.34375 
Q 39.109375 -1.421875 33.890625 -1.421875 
Q 20.796875 -1.421875 13.15625 6.1875 
Q 5.515625 13.8125 5.515625 26.8125 
Q 5.515625 40.234375 12.765625 48.109375 
Q 20.015625 56 32.328125 56 
Q 43.359375 56 49.78125 48.890625 
Q 56.203125 41.796875 56.203125 29.59375 
z
M 47.21875 32.234375 
Q 47.125 39.59375 43.09375 43.984375 
Q 39.0625 48.390625 32.421875 48.390625 
Q 24.90625 48.390625 20.390625 44.140625 
Q 15.875 39.890625 15.1875 32.171875 
z
" id="DejaVuSans-101"/>
     <path d="M 41.109375 46.296875 
Q 39.59375 47.171875 37.8125 47.578125 
Q 36.03125 48 33.890625 48 
Q 26.265625 48 22.1875 43.046875 
Q 18.109375 38.09375 18.109375 28.8125 
L 18.109375 0 
L 9.078125 0 
L 9.078125 54.6875 
L 18.109375 54.6875 
L 18.109375 46.1875 
Q 20.953125 51.171875 25.484375 53.578125 
Q 30.03125 56 36.53125 56 
Q 37.453125 56 38.578125 55.875 
Q 39.703125 55.765625 41.0625 55.515625 
z
" id="DejaVuSans-114"/>
     <path d="M 34.28125 27.484375 
Q 23.390625 27.484375 19.1875 25 
Q 14.984375 22.515625 14.984375 16.5 
Q 14.984375 11.71875 18.140625 8.90625 
Q 21.296875 6.109375 26.703125 6.109375 
Q 34.1875 6.109375 38.703125 11.40625 
Q 43.21875 16.703125 43.21875 25.484375 
L 43.21875 27.484375 
z
M 52.203125 31.203125 
L 52.203125 0 
L 43.21875 0 
L 43.21875 8.296875 
Q 40.140625 3.328125 35.546875 0.953125 
Q 30.953125 -1.421875 24.3125 -1.421875 
Q 15.921875 -1.421875 10.953125 3.296875 
Q 6 8.015625 6 15.921875 
Q 6 25.140625 12.171875 29.828125 
Q 18.359375 34.515625 30.609375 34.515625 
L 43.21875 34.515625 
L 43.21875 35.40625 
Q 43.21875 41.609375 39.140625 45 
Q 35.0625 48.390625 27.6875 48.390625 
Q 23 48.390625 18.546875 47.265625 
Q 14.109375 46.140625 10.015625 43.890625 
L 10.015625 52.203125 
Q 14.9375 54.109375 19.578125 55.046875 
Q 24.21875 56 28.609375 56 
Q 40.484375 56 46.34375 49.84375 
Q 52.203125 43.703125 52.203125 31.203125 
z
" id="DejaVuSans-97"/>
    </defs>
    <g transform="translate(830.436492 39.304)scale(0.12 -0.12)">
     <use xlink:href="#DejaVuSans-68"/>
     <use x="77.001953" xlink:href="#DejaVuSans-105"/>
     <use x="104.785156" xlink:href="#DejaVuSans-102"/>
     <use x="139.990234" xlink:href="#DejaVuSans-102"/>
     <use x="175.195312" xlink:href="#DejaVuSans-101"/>
     <use x="236.71875" xlink:href="#DejaVuSans-114"/>
     <use x="275.582031" xlink:href="#DejaVuSans-101"/>
     <use x="337.105469" xlink:href="#DejaVuSans-110"/>
     <use x="400.484375" xlink:href="#DejaVuSans-116"/>
     <use x="439.693359" xlink:href="#DejaVuSans-105"/>
     <use x="467.476562" xlink:href="#DejaVuSans-97"/>
     <use x="528.755859" xlink:href="#DejaVuSans-116"/>
     <use x="567.964844" xlink:href="#DejaVuSans-105"/>
     <use x="595.748047" xlink:href="#DejaVuSans-111"/>
     <use x="656.929688" xlink:href="#DejaVuSans-110"/>
    </g>
   </g>
   <g id="legend_2">
    <g id="patch_13">
     <path d="M 951.584375 112.0165 
L 1070.890625 112.0165 
Q 1072.890625 112.0165 1072.890625 110.0165 
L 1072.890625 52.304 
Q 1072.890625 50.304 1070.890625 50.304 
L 951.584375 50.304 
Q 949.584375 50.304 949.584375 52.304 
L 949.584375 110.0165 
Q 949.584375 112.0165 951.584375 112.0165 
z
" style="fill:#ffffff;opacity:0.8;stroke:#cccccc;stroke-linejoin:miter;"/>
    </g>
    <g id="line2d_34">
     <path d="M 953.584375 58.402437 
L 973.584375 58.402437 
" style="fill:none;stroke:#bfbf00;stroke-linecap:square;stroke-width:1.5;"/>
    </g>
    <g id="line2d_35"/>
    <g id="text_32">
     <!-- dy1/dx -->
     <g transform="translate(981.584375 61.902437)scale(0.1 -0.1)">
      <use xlink:href="#DejaVuSans-100"/>
      <use x="63.476562" xlink:href="#DejaVuSans-121"/>
      <use x="122.65625" xlink:href="#DejaVuSans-49"/>
      <use x="186.279297" xlink:href="#DejaVuSans-47"/>
      <use x="219.970703" xlink:href="#DejaVuSans-100"/>
      <use x="283.447266" xlink:href="#DejaVuSans-120"/>
     </g>
    </g>
    <g id="line2d_36"/>
    <g id="line2d_37">
     <g>
      <use style="fill:#0000ff;stroke:#0000ff;" x="963.584375" xlink:href="#m2af99a35f6" y="73.080562"/>
     </g>
    </g>
    <g id="text_33">
     <!-- numerical dy1/dx -->
     <defs>
      <path d="M 52 44.1875 
Q 55.375 50.25 60.0625 53.125 
Q 64.75 56 71.09375 56 
Q 79.640625 56 84.28125 50.015625 
Q 88.921875 44.046875 88.921875 33.015625 
L 88.921875 0 
L 79.890625 0 
L 79.890625 32.71875 
Q 79.890625 40.578125 77.09375 44.375 
Q 74.3125 48.1875 68.609375 48.1875 
Q 61.625 48.1875 57.5625 43.546875 
Q 53.515625 38.921875 53.515625 30.90625 
L 53.515625 0 
L 44.484375 0 
L 44.484375 32.71875 
Q 44.484375 40.625 41.703125 44.40625 
Q 38.921875 48.1875 33.109375 48.1875 
Q 26.21875 48.1875 22.15625 43.53125 
Q 18.109375 38.875 18.109375 30.90625 
L 18.109375 0 
L 9.078125 0 
L 9.078125 54.6875 
L 18.109375 54.6875 
L 18.109375 46.1875 
Q 21.1875 51.21875 25.484375 53.609375 
Q 29.78125 56 35.6875 56 
Q 41.65625 56 45.828125 52.96875 
Q 50 49.953125 52 44.1875 
z
" id="DejaVuSans-109"/>
      <path d="M 48.78125 52.59375 
L 48.78125 44.1875 
Q 44.96875 46.296875 41.140625 47.34375 
Q 37.3125 48.390625 33.40625 48.390625 
Q 24.65625 48.390625 19.8125 42.84375 
Q 14.984375 37.3125 14.984375 27.296875 
Q 14.984375 17.28125 19.8125 11.734375 
Q 24.65625 6.203125 33.40625 6.203125 
Q 37.3125 6.203125 41.140625 7.25 
Q 44.96875 8.296875 48.78125 10.40625 
L 48.78125 2.09375 
Q 45.015625 0.34375 40.984375 -0.53125 
Q 36.96875 -1.421875 32.421875 -1.421875 
Q 20.0625 -1.421875 12.78125 6.34375 
Q 5.515625 14.109375 5.515625 27.296875 
Q 5.515625 40.671875 12.859375 48.328125 
Q 20.21875 56 33.015625 56 
Q 37.15625 56 41.109375 55.140625 
Q 45.0625 54.296875 48.78125 52.59375 
z
" id="DejaVuSans-99"/>
      <path id="DejaVuSans-32"/>
     </defs>
     <g transform="translate(981.584375 76.580562)scale(0.1 -0.1)">
      <use xlink:href="#DejaVuSans-110"/>
      <use x="63.378906" xlink:href="#DejaVuSans-117"/>
      <use x="126.757812" xlink:href="#DejaVuSans-109"/>
      <use x="224.169922" xlink:href="#DejaVuSans-101"/>
      <use x="285.693359" xlink:href="#DejaVuSans-114"/>
      <use x="326.806641" xlink:href="#DejaVuSans-105"/>
      <use x="354.589844" xlink:href="#DejaVuSans-99"/>
      <use x="409.570312" xlink:href="#DejaVuSans-97"/>
      <use x="470.849609" xlink:href="#DejaVuSans-108"/>
      <use x="498.632812" xlink:href="#DejaVuSans-32"/>
      <use x="530.419922" xlink:href="#DejaVuSans-100"/>
      <use x="593.896484" xlink:href="#DejaVuSans-121"/>
      <use x="653.076172" xlink:href="#DejaVuSans-49"/>
      <use x="716.699219" xlink:href="#DejaVuSans-47"/>
      <use x="750.390625" xlink:href="#DejaVuSans-100"/>
      <use x="813.867188" xlink:href="#DejaVuSans-120"/>
     </g>
    </g>
    <g id="line2d_38">
     <path d="M 953.584375 87.758687 
L 973.584375 87.758687 
" style="fill:none;stroke:#008000;stroke-linecap:square;stroke-width:1.5;"/>
    </g>
    <g id="line2d_39"/>
    <g id="text_34">
     <!-- dy2/dx -->
     <g transform="translate(981.584375 91.258687)scale(0.1 -0.1)">
      <use xlink:href="#DejaVuSans-100"/>
      <use x="63.476562" xlink:href="#DejaVuSans-121"/>
      <use x="122.65625" xlink:href="#DejaVuSans-50"/>
      <use x="186.279297" xlink:href="#DejaVuSans-47"/>
      <use x="219.970703" xlink:href="#DejaVuSans-100"/>
      <use x="283.447266" xlink:href="#DejaVuSans-120"/>
     </g>
    </g>
    <g id="line2d_40"/>
    <g id="line2d_41">
     <g>
      <use style="fill:#ff0000;stroke:#ff0000;" x="963.584375" xlink:href="#madce64b7ec" y="102.436812"/>
     </g>
    </g>
    <g id="text_35">
     <!-- numerical dy2/dx -->
     <g transform="translate(981.584375 105.936812)scale(0.1 -0.1)">
      <use xlink:href="#DejaVuSans-110"/>
      <use x="63.378906" xlink:href="#DejaVuSans-117"/>
      <use x="126.757812" xlink:href="#DejaVuSans-109"/>
      <use x="224.169922" xlink:href="#DejaVuSans-101"/>
      <use x="285.693359" xlink:href="#DejaVuSans-114"/>
      <use x="326.806641" xlink:href="#DejaVuSans-105"/>
      <use x="354.589844" xlink:href="#DejaVuSans-99"/>
      <use x="409.570312" xlink:href="#DejaVuSans-97"/>
      <use x="470.849609" xlink:href="#DejaVuSans-108"/>
      <use x="498.632812" xlink:href="#DejaVuSans-32"/>
      <use x="530.419922" xlink:href="#DejaVuSans-100"/>
      <use x="593.896484" xlink:href="#DejaVuSans-121"/>
      <use x="653.076172" xlink:href="#DejaVuSans-50"/>
      <use x="716.699219" xlink:href="#DejaVuSans-47"/>
      <use x="750.390625" xlink:href="#DejaVuSans-100"/>
      <use x="813.867188" xlink:href="#DejaVuSans-120"/>
     </g>
    </g>
   </g>
  </g>
 </g>
 <defs>
  <clipPath id="p97d3eb74ad">
   <rect height="466.455917" width="408.472641" x="134.1375" y="45.304"/>
  </clipPath>
  <clipPath id="p76f770a598">
   <rect height="466.455917" width="408.472641" x="669.417984" y="45.304"/>
  </clipPath>
 </defs>
</svg>
